<svg width="30" height="42" viewBox="0 0 30 42" fill="none" xmlns="http://www.w3.org/2000/svg">
<rect x="6" width="6" height="6" rx="2" fill="#121312"/>
<rect x="12" width="6" height="6" rx="2" fill="#121312"/>
<rect x="18" width="6" height="6" rx="2" fill="#121312"/>
<rect y="6" width="6" height="6" rx="2" fill="#121312"/>
<rect x="24" y="6" width="6" height="6" rx="2" fill="#121312"/>
<rect y="12" width="6" height="6" rx="2" fill="#121312"/>
<rect x="24" y="12" width="6" height="6" rx="2" fill="#121312"/>
<rect x="6" y="18" width="6" height="6" rx="2" fill="#121312"/>
<rect x="12" y="18" width="6" height="6" rx="2" fill="#121312"/>
<rect x="18" y="18" width="6" height="6" rx="2" fill="#121312"/>
<rect y="24" width="6" height="6" rx="2" fill="#121312"/>
<rect x="24" y="24" width="6" height="6" rx="2" fill="#121312"/>
<rect y="30" width="6" height="6" rx="2" fill="#121312"/>
<rect x="24" y="30" width="6" height="6" rx="2" fill="#121312"/>
<rect x="6" y="36" width="6" height="6" rx="2" fill="#121312"/>
<rect x="12" y="36" width="6" height="6" rx="2" fill="#121312"/>
<rect x="18" y="36" width="6" height="6" rx="2" fill="#121312"/>
</svg>
