<svg width="16" height="16" viewBox="0 0 16 16" fill="none" xmlns="http://www.w3.org/2000/svg">
<path d="M14 8.00031C14.0004 8.17008 13.9569 8.33706 13.8736 8.48502C13.7904 8.63299 13.6703 8.75689 13.525 8.84469L4.52 14.3534C4.36818 14.4464 4.19429 14.4972 4.0163 14.5005C3.83831 14.5037 3.66266 14.4595 3.5075 14.3722C3.35382 14.2863 3.2258 14.1609 3.1366 14.0091C3.04741 13.8573 3.00026 13.6845 3 13.5084V2.49219C3.00026 2.31612 3.04741 2.14329 3.1366 1.99148C3.2258 1.83967 3.35382 1.71436 3.5075 1.62844C3.66266 1.54115 3.83831 1.49688 4.0163 1.50017C4.19429 1.50347 4.36818 1.55422 4.52 1.64719L13.525 7.15594C13.6703 7.24373 13.7904 7.36764 13.8736 7.5156C13.9569 7.66356 14.0004 7.83054 14 8.00031Z" fill="#00A084"/>
</svg>
