<svg width="23" height="22" viewBox="0 0 23 22" fill="none" xmlns="http://www.w3.org/2000/svg">
<path d="M1.31324 12.5703C0.73466 12.5703 0.265625 12.1013 0.265625 11.5227L0.265625 10.4751C0.265625 9.89649 0.73466 9.42746 1.31324 9.42746H2.36086C2.93945 9.42746 3.40848 9.89649 3.40848 10.4751V11.5227C3.40848 12.1013 2.93945 12.5703 2.36086 12.5703H1.31324Z" fill="#00A084"/>
<path d="M4.45387 12.5703C3.87529 12.5703 3.40625 12.1013 3.40625 11.5227L3.40625 10.4751C3.40625 9.89649 3.87529 9.42746 4.45387 9.42746H5.50149C6.08007 9.42746 6.54911 9.89649 6.54911 10.4751L6.54911 11.5227C6.54911 12.1013 6.08007 12.5703 5.50149 12.5703H4.45387Z" fill="#00A084"/>
<path d="M7.60231 12.5703C7.02372 12.5703 6.55469 12.1013 6.55469 11.5227L6.55469 10.4751C6.55469 9.89649 7.02372 9.42746 7.60231 9.42746L8.64993 9.42746C9.22851 9.42746 9.69754 9.89649 9.69754 10.4751V11.5227C9.69754 12.1013 9.22851 12.5703 8.64993 12.5703L7.60231 12.5703Z" fill="#00A084"/>
<path d="M10.7429 12.5703C10.1643 12.5703 9.69531 12.1013 9.69531 11.5227V10.4751C9.69531 9.89649 10.1643 9.42746 10.7429 9.42746H11.7906C12.3691 9.42746 12.8382 9.89649 12.8382 10.4751V11.5227C12.8382 12.1013 12.3691 12.5703 11.7906 12.5703H10.7429Z" fill="#00A084"/>
<path d="M13.8836 18.8574C13.305 18.8574 12.8359 18.3884 12.8359 17.8098V16.7622C12.8359 16.1836 13.305 15.7146 13.8836 15.7146H14.9312C15.5098 15.7146 15.9788 16.1836 15.9788 16.7622V17.8098C15.9788 18.3884 15.5098 18.8574 14.9312 18.8574H13.8836Z" fill="#00A084"/>
<path d="M13.8836 12.5703C13.305 12.5703 12.8359 12.1013 12.8359 11.5227L12.8359 10.4751C12.8359 9.89649 13.305 9.42746 13.8836 9.42746H14.9312C15.5098 9.42746 15.9788 9.89649 15.9788 10.4751V11.5227C15.9788 12.1013 15.5098 12.5703 14.9312 12.5703H13.8836Z" fill="#00A084"/>
<path d="M13.8836 6.28516C13.305 6.28516 12.8359 5.81612 12.8359 5.23754L12.8359 4.18992C12.8359 3.61133 13.305 3.1423 13.8836 3.1423L14.9312 3.1423C15.5098 3.1423 15.9788 3.61133 15.9788 4.18992L15.9788 5.23754C15.9788 5.81612 15.5098 6.28516 14.9312 6.28516H13.8836Z" fill="#00A084"/>
<path d="M17.0242 15.7129C16.4456 15.7129 15.9766 15.2439 15.9766 14.6653V13.6177C15.9766 13.0391 16.4456 12.57 17.0242 12.57L18.0718 12.57C18.6504 12.57 19.1194 13.0391 19.1194 13.6177V14.6653C19.1194 15.2439 18.6504 15.7129 18.0718 15.7129L17.0242 15.7129Z" fill="#00A084"/>
<path d="M17.0242 12.5703C16.4456 12.5703 15.9766 12.1013 15.9766 11.5227V10.4751C15.9766 9.89649 16.4456 9.42746 17.0242 9.42746H18.0718C18.6504 9.42746 19.1194 9.89649 19.1194 10.4751V11.5227C19.1194 12.1013 18.6504 12.5703 18.0718 12.5703H17.0242Z" fill="#00A084"/>
<path d="M17.0242 9.42773C16.4456 9.42773 15.9766 8.9587 15.9766 8.38012V7.3325C15.9766 6.75391 16.4456 6.28488 17.0242 6.28488H18.0718C18.6504 6.28488 19.1194 6.75391 19.1194 7.3325V8.38012C19.1194 8.9587 18.6504 9.42773 18.0718 9.42773H17.0242Z" fill="#00A084"/>
<path d="M20.1726 12.5703C19.594 12.5703 19.125 12.1013 19.125 11.5227V10.4751C19.125 9.89649 19.594 9.42746 20.1726 9.42746H21.2202C21.7988 9.42746 22.2679 9.89649 22.2679 10.4751V11.5227C22.2679 12.1013 21.7988 12.5703 21.2202 12.5703H20.1726Z" fill="#00A084"/>
</svg>
