<svg xmlns="http://www.w3.org/2000/svg" viewBox="0 0 567 689"><ellipse cx="265" cy="225" rx="110" ry="100" fill="white"/><rect x="220" y="310" width="90" height="120" rx="12" fill="white"/><path d="M269 77.9c-2.6.8-8.2 3.8-13.5 7.1-2.6 1.6-3.8 1.7-8.9.9-7.9-1.3-15.2.3-21.7 4.7-2.8 1.9-5.9 3.4-6.9 3.4-3.5 0-8 1.3-7.4 2.1.5.9-3.1 4.9-4.5 4.9-.5 0-1.1-.4-1.3-.9-.5-1.5-10.8.4-12.6 2.4-1.5 1.6-1.5 1.7-.1 1.2 1.1-.3 2.4.5 3.9 2.5 1.2 1.6 2 3.2 1.7 3.4-.9.9-14.1 3.4-17.9 3.4-2 0-4 .5-4.3 1-.4.6-2.7 1-5.1.9-3.1-.2-5 .2-6.1 1.4-1 .9-1.3 1.7-.7 1.7s1.6 1.2 2.3 2.6c1 2.3.9 2.8-.8 4.1-3.8 2.6-5.1 4.5-5 7.1 0 2.5.1 2.6.9.5.5-1.2 1.8-2.4 2.9-2.8 2-.6 8.1 1.9 8.1 3.4 0 1.1-8.2 6.1-15.1 9.3-11.8 5.4-18 14.4-18 26.4 0 3.8.5 8.3 1.2 9.9l1.3 3 .6-5c.4-2.8 1-5.9 1.5-7 1.7-4.1 10.1-9.5 14.8-9.5 1.9 0 1.9.1.3 1.9-1.1 1.2-1.3 2.1-.7 2.5 1.1.7-2.2 7-4.3 8.4-1.5.9-7.2 15.4-8.8 22.2-1 4.3-.9 5.9.6 10.8 2.7 8.5 5 12.4 9.6 16.6 3.9 3.5 9.5 6.6 12 6.6.6 0-.5-1.4-2.5-3.2-5.3-4.6-7.5-9.6-7.5-16.9 0-3.4.3-5.9.7-5.6.3.4 1.3.1 2.2-.7 3.9-3.4 15.1-4.2 15.1-1.1 0 .7-1.4 3.9-3.1 7.1-3.5 6.7-4 12.4-1.5 17.3 2 3.9 3 4 2.1.3-.4-2.1 0-3.6 1.6-5.6 1.2-1.6 2.5-2.4 3-1.9s1.3 5.5 1.9 11.2c.5 5.6 1.4 11 1.9 11.9.8 1.2.9.6.6-2.3-.5-3.9-.4-3.9 1.1 1 .8 2.7 2.4 7.2 3.5 9.9 1 2.7 1.9 5.4 1.9 6s-1.9 1.8-4.2 2.7c-18.3 6.9-20.8 8.2-20.8 10.8 0 1.4 1.1 3.7 2.5 5.1 1.8 1.9 2.9 4.5 3.6 9.1 2.9 18.1 8.4 27.8 19.1 33.8 5.4 3 15.1 3.7 22.1 1.7 11.6-3.4 18.5-12.1 24.3-30.6 1.5-4.7 3.7-10.7 5-13.4 1.3-2.8 2.4-5.8 2.4-6.8 0-1.5.8-1.8 5.3-1.8 6.3 0 7.7 1.1 7.7 6.1 0 7.1 8.1 26.8 13.8 33.5S287.5 319 297 319c6.1 0 16.4-3.2 21.4-6.8 8.3-5.8 14.7-19.7 16.1-35.5.7-7.7 2.5-11.4 4.9-10.4.6.3 2 .8 3.1 1.2 1.6.6 1.7.5.5-.4-.8-.6-1.2-1.1-.9-1.1 1.2 0 27.3 12 28.3 13 1.8 1.8 1.9 19.1.2 29.1-2 11.8-5.9 24.5-7.4 24.2-1.1-.3-1.4.6-2.5 6.2-.4 1.8-.5 1.8-1.4-.5-1-2.4-1-2.4-2.3 1.5-.8 2.2-1.4 7.3-1.6 11.3-.1 4-.5 7.6-.9 8s-.5-2.8-.3-7.2c.4-5.8.2-7.3-.5-6-.6 1-1 3.9-.8 6.4.1 3.5-.1 4.2-.9 3-.9-1.2-1-.7-.6 2 .3 1.9.1 4.8-.4 6.5l-1 3 .4-3c.3-1.7.1-4.6-.3-6.5-.7-3.2-.8-2.9-1.5 3.5-.8 7.4-2.5 12.7-3.8 11.9-.4-.3-.8-1.2-.8-2s.5-1.2 1-.9c.6.4 1-.7.9-2.7 0-1.8-.3-2.7-.6-2.1-.2.7-.4 1.5-.3 1.9s-.3 1-.8 1.3c-1.4.9-2.7 5.5-1.3 4.7 1.7-1.1 1.3 2.6-.5 5.2-1.9 2.7-5.9 5.1-5.1 3 .2-.7.9-1.2 1.5-1.1.6.2.6-.8-.1-2.8l-1.2-3-1.1 3.3-1.2 3.3-.4-3.5c-.3-2.3-.5-1.3-.6 2.9-.2 7-1.3 7.9-1.4 1.1 0-2.7-.3-3.7-.9-2.9-.4.8-.6 2.5-.3 3.9.4 1.8.3 2.1-.4 1.1-.8-1.1-1.1-1-1.5.5-.3 1.3-.5.9-.6-1.1-.1-1.9-.4-2.6-.9-1.7-1.3 1.9-3.8-1.5-4.5-6.2-.4-2.2-1.2-4.4-1.8-5-.9-.8-1-.6-.5.9.4 1.1 1 3.3 1.2 5 .5 2.8.4 2.8-.8 1-2-3.1-3.5-2.8-3 .6.4 2.4.8 2.8 2.5 2.3 1.6-.5 1.9-.3 1.4 1.1-.4.9-.7 2.6-.7 3.8-.1 1.7-.6 1.3-2.1-1.8-1.2-2.2-2.5-5.1-2.9-6.5l-.8-2.5-.1 2.5c-.1 2-.3 2.2-1.1 1-.8-1.3-1-1.2-1 .2 0 1 .6 1.8 1.4 1.8.7 0 1.7.8 2 1.7 1.3 3.5 3.6 6.8 4.7 6.5.6-.1.7.3.3.9-.5.9-1.5.3-3.2-1.7-1.3-1.6-2.2-2.1-1.8-1.2.3 1 .1 1.8-.4 1.8-.6 0-1-.9-1-1.9 0-1.1-.5-2.3-1.1-2.7-.8-.4-.9.1-.4 1.6.4 1.2.8 2.9.9 3.6s.6 1.7 1.1 2.1c.4.4.5.2.1-.5s-.1-1.2.8-1.2c.8 0 1.9.8 2.4 1.7 1.1 2.1.9 8-.3 9.1-.4.4-.6-1.2-.3-3.5.2-3.1 0-3.9-.8-3.2s-1.4.6-1.9-.1c-.3-.5-1.1-1-1.8-1-.8 0-.8.3.1 1.2.7.7 1.2 1.8 1.2 2.5 0 1-.6 1-2.7 0-1.6-.6-3.2-1.7-3.6-2.4s-1.5-1.3-2.2-1.3c-.8 0-1.5-.6-1.5-1.3 0-.9-.2-.9-.9.1-.6 1.1-1.1 1-2.5-.3-2.1-2.2-2-2.8.4-2 1.4.5 2 .2 2-.9 0-.9-.4-1.6-1-1.6-1.3 0-5.1-9-4.3-10.3.3-.6.1-.7-.5-.3-.7.4-1.2.3-1.2-.3 0-.5-.3-1.8-.6-2.8-.6-1.5-.4-1.6.7-.6 2 2 3.1 1.5 1.9-.7-.6-1.1-1.5-1.8-2-1.5-.6.3-.7-.1-.3-1.1.5-1.5.7-1.5 1.5 0 .5.9 1.4 1.4 1.9 1 .6-.3.5-1.2-.3-2.2-1.2-1.5-1.1-1.6.4-.3 1 .7 1.6 1.7 1.3 2.1-.3.5-.2 1.1.3 1.4 1.9 1.2.7-3.2-2-7.3-2-3-2.4-4.2-1.3-3.7 2.1.8.9-1.3-2.4-3.9-2.9-2.4-6.5-3.9-5.6-2.5 1.3 2-.7.9-3.8-2.3-2.8-2.7-3.9-3.2-7.8-3.1-2.6.1-5.2-.3-6-.8-1.1-.7-.9-.8.5-.4 1.9.7 1.9.6.2-1.3-2-2.2-5.4-3.4-5.2-1.7 0 .6-.3 1.2-.8 1.3-.5 0-1.3.8-1.8 1.7-1.3 2.2-2.5 2-3.4-.7-1.2-3.5-1-5.1.6-5.9 1.2-.5 1-.8-.8-1.4-1.4-.4-1.9-1-1.4-1.8.5-.6.8-2.7.8-4.6-.1-3.2-.4-3.6-4.4-4.9-3.7-1.1-4.9-1.1-8 .1-2.8 1.1-3.6 1.9-3.5 3.6.3 2.7-2.9 4.5-6.6 3.7-1.6-.3-4.7-2.2-7-4.2-2.3-1.9-4.4-3.4-4.6-3.1-.2.2 0 2.1.5 4.3 1.3 5.6 1.2 6.5-.6 6.5-.8 0-1.2.5-.9 1s.1 1-.4 1c-.6 0-1.1.4-1.1.9s-1.6 2.6-3.6 4.7c-2 2.2-3.3 3.2-2.9 2.4.5-.8-.3-.5-1.7.7-2.7 2.5-4.3 3-3.2 1 .4-.6-.3-.2-1.5 1.1-1.2 1.2-1.9 2.7-1.6 3.2.3.6.2 1-.4 1-2.9 0-4.6 14.4-2.5 21.2.9 2.6 1.4 6.4 1.2 8.5l-.4 3.8-1.8-3.9c-1-2.2-1.6-5-1.3-6.2.2-1.3.1-2.1-.3-1.9-.5.3-1.6-1.4-2.6-3.8-4.5-10.5-5.3-12.1-5.3-10.7-.2 5.4 13.6 46.4 20.1 59.6 6.7 13.7 15.5 18.7 35.3 20 12.7.9 27-1.8 43-7.9 6-2.4 27.2-13.4 32.8-17.1 7.5-5 20.9-17.6 26-24.5 4.6-6.2 9-15.5 10.6-22.6 1.2-4.8 1.9-7.8 5.6-22.5.9-3.6 2.5-9.4 3.5-13s3-11 4.5-16.5c2.7-10.5 6-18.5 7.6-18.5.5 0 .9-.8.9-1.8 0-1.2.3-1.4.8-.4.6.9 1.9.1 4.7-2.9 4.6-5 14.5-9.9 20-9.9 2.3 0 5.5.9 7.4 2.1 3.9 2.4 4.3 2.1 6.6-5.4.8-2.6 2-5.4 2.8-6.2s2.3-4.5 3.2-8.2c1-3.7 2.6-7.6 3.6-8.5 2.3-2.3 3.9-8 3.9-13.9 0-3.6.5-5 2.1-6 2.9-2 3.7-12.4 1.5-19.4-1.4-4.4-1.4-5.1-.1-6.1 2.3-1.7 1.8-8.5-1-13.8-1.7-3.3-2.5-6.3-2.5-9.9 0-6.1-.4-6.9-4.8-9.1-2.8-1.5-3.3-2.2-2.8-4.2.3-1.3.9-3.5 1.2-4.9.4-1.4.2-2.5-.4-2.5s-1.3-1.9-1.7-4.3c-.7-4.1-3.9-12.7-4.8-12.7-.3 0-.2 2 .1 4.5.2 2.5.2 4.5-.1 4.5s-1.3-2.4-2.3-5.3c-2.9-9-8.3-16.8-13.2-19.3-2-1.1-5.1-3.4-6.8-5.2-3.2-3.3-6.9-4.7-4.4-1.7.7.8.9 1.5.6 1.5-1.1 0-5.4-5.4-9.6-11.9-2.1-3.2-5.3-7-7.1-8.4-5.4-4-13.8-7.6-19.8-8.2-3.1-.4-6.9-.9-8.6-1.2-1.6-.2-4.9-.8-7.2-1.1-3.2-.5-4.8-1.5-6.7-4-6.6-9.1-17.9-13.5-32.5-12.8-5.1.3-9.3.1-9.6-.5-.4-.5-1.8-.9-3.3-.9l-2.7.1 2.3 1.9c1.2 1 2.8 2 3.5 2.3.6.2.9.8.5 1.2s-3.1-.6-6.1-2.3c-9.4-5.3-19.1-7.3-25.7-5.3m-64.9 25.3c1.3 2.3.3 2.3-2.8-.1-2.3-1.9-2.3-2-.3-1.8 1.2.1 2.6.9 3.1 1.9m-31.8 19.5c-.7.2-1.9.2-2.5 0-.7-.3-.2-.5 1.2-.5s1.9.2 1.3.5m124.5 51.8c2.9.8 7.4 1.5 10 1.5s5.7.7 6.9 1.5 2.8 1.2 3.7.9c1-.4 1.6-.1 1.6.7 0 .7.3 1 .6.6.4-.3 1.9 0 3.5.9 1.6.8 3.1 1.4 3.4 1.4h1.5c.6 0 2.6 1.5 4.4 3.2 4.3 4.2 7.6 6.9 7.6 6.3 0-.3.9-.1 2.1.5 1.1.7 1.8 1.4 1.5 1.7s-1.2 0-2.1-.7c-.8-.7-1.5-.9-1.5-.5 0 1.2 5.3 7 6.1 6.8.5-.2 1.2.9 1.5 2.5.9 3.3 4.2 10 6.3 12.6 1.5 1.8 1.3 1.8-2.2-.2l-3.7-2.1 1.5 2.9c1.8 3.4 1.9 4.4.5 3.5-.7-.4-.9.3-.6 2 .5 2.7.5 2.7-1.7.9-1.7-1.5-1.9-1.6-.8-.2.7.9.9 2.3.5 2.9-.4.7-.3.9.2.6.6-.3 1.6.4 2.3 1.6 1.1 1.8 1.1 2 0 .9-.7-.6-2.1-1.2-3.1-1.2s-1.8-.5-1.8-1.2c0-.6-.3-.8-.7-.5-.3.4.3 1.8 1.6 3 1.2 1.3 1.9 3.1 1.6 3.9-.4 1 2.5 5.1 8 11.4 9.8 11.3 14.8 20.3 14.3 25.6l-.3 3.5-12.6-6.2c-9.4-4.5-14-7.4-17.8-11.2-2.8-2.8-7.7-6.3-10.8-7.8-3.2-1.5-8-4-10.6-5.6-2.7-1.7-4.6-2.6-4.3-2 .3.5-1.5.2-4.1-.7-4.1-1.4-7.4-1.6-21.5-1.1-11.5.4-17.2 1-18.3 1.9-.8.7-1.8 1-2.1.7-.4-.3-1.3.1-2.1.9s-1.9 1.2-2.4.9c-.4-.3-1.2.7-1.5 2.2-.4 1.5-1.4 3.8-2.2 5-1.3 2.1-1.3 2.3.4 2.3 1.3 0 1.5.3.7.8-.9.6-.7 1.2.7 2.5 1.5 1.3 3.1 1.6 6.3 1.2l4.2-.6-5.9 2.6c-6.2 2.6-10.1 3-21.8 1.9l-6.6-.7-2.5-5.3c-1.3-3-2.6-5.1-2.9-4.8-.3.2-.8-.2-1.2-1.1-.3-.9-.2-1.3.4-1s1-.3 1-1.5c0-1.3-.4-1.8-1.1-1.5-.6.4-2.2-.4-3.6-1.6l-2.5-2.4.7 2.4.8 2.5-3.2-2.6c-2.8-2.4-3.7-2.6-8.9-2.2-8.1.7-14 2.5-16.9 5.2-1.4 1.3-2.7 2.1-3 1.8-.7-.7 1.5-23.7 2.8-30.6 1.7-8.7 3.6-12.6 9-19.8 6.3-8.2 9.4-11.1 13.1-12.4 1.5-.6 2.5-1.4 2.2-1.9s0-.9.6-.9c1.1 0 5.2-1.6 10.8-4.3 3.3-1.6 12-1.2 15 .7.7.4 2.3.9 3.5 1.1s3.8.7 5.7 1.1c3 .6 3.3.5 2.3-.8-1.1-1.3-.7-1.5 2.5-1.6 6.7-.2 11.6-1.3 10.1-2.3q-1.5-.9 2.1-.9c5.4-.2 12.3-1 12.9-1.6.3-.3 1.5-.2 2.6.1s4.4 1.2 7.3 2m142.8 16.2c-.3.3-1.2 0-2-.6-1.2-1-1.3-1.6-.3-3.2 1.1-1.8 1.2-1.8 2.1.7.4 1.4.5 2.8.2 3.1m-87.5 14c1.3 1.5 1.2 1.5-.8.4-2.4-1.2-2.9-2.1-1.4-2.1.5 0 1.5.7 2.2 1.7m-60.8 47c-.7.2-2.1.2-3 0-1-.3-.4-.5 1.2-.5 1.7 0 2.4.2 1.8.5M318 253c2 .8 1.5.9-3 .4-3-.3-8.9-1-13-1.4-7.1-.8-6.9-.8 3-.5 5.8.2 11.6.9 13 1.5m-3.6 3.1c2.9.8 3.6 1.3 2.5 2-1.1.6-.8.9 1.1 1 1.4.1 3 .3 3.7.3 2.2.2 6.3 5 7.3 8.5 3.5 12.6-1.6 31.5-10.7 40.4-10.9 10.5-31.3 10.1-44-.8-8.6-7.4-15.4-27.7-12.4-37.4 2.4-8 10.2-12.9 24.1-15.1 6.6-1.1 23-.4 28.4 1.1m9.9-1.4c-.7.2-1.9.2-2.5 0-.7-.3-.2-.5 1.2-.5s1.9.2 1.3.5m-115 1c-1.3.2-3.3.2-4.5 0-1.3-.2-.3-.4 2.2-.4s3.5.2 2.3.4m-13 1c-.7.2-1.9.2-2.5 0-.7-.3-.2-.5 1.2-.5s1.9.2 1.3.5m28.7.7c3 .8 5.9 1.2 6.4.9.5-.4.6-.1.2.5-.3.5 0 1.3.6 1.6.7.3.2.3-1.2-.1s-5.4-1.5-9-2.4-5.6-1.8-4.5-1.8c1.1-.1 4.5.5 7.5 1.3m108.7-.8c-.3.3-1.2.4-1.9.1-.8-.3-.5-.6.6-.6 1.1-.1 1.7.2 1.3.5m-113 4.1c2.9.9 6.3 2.7 7.5 4l2.3 2.4-2.8-1c-4.9-1.9-5.4-1.1-.8 1.2 6.3 3.2 6.5 4.9.4 3.1-8.2-2.5-18.9.1-23.8 5.8-5.1 5.7-5.1 5.8-.8 5.6 3.3-.1 3.9-.4 3.6-1.8-.5-1.8 4.9-7 7.3-7 .8 0 1.4 1 1.4 2.4s1.1 3.7 2.3 5.2c2.3 2.7 2.5 2.7 7.1 1.4 3.3-.9 5.1-2.1 5.9-3.7 3.1-6.8 3.2 2.6.1 13.7-4.9 17.2-14.6 26-28.7 26-5.1 0-7.5-.6-12.3-3-10.8-5.5-16.4-16.4-16.7-32.7-.2-8.8-.1-9.2 2.9-12.9 3-3.8 7.7-6.8 12.4-7.9 2.2-.5 2.8-.1 4.1 2.7l1.6 3.3.5-3.3c.3-2.4.1-3.2-1.1-3.3-1.2 0-1.1-.3.4-.9 3.7-1.6 21.4-1.1 27.2.7M261 339c0 .5-.2 1-.4 1-.3 0-.8-.5-1.1-1-.3-.6-.1-1 .4-1 .6 0 1.1.4 1.1 1m97.7 3.2c-.3.8-.6.5-.6-.6-.1-1.1.2-1.7.5-1.3.3.3.4 1.2.1 1.9m-101.2 7.6c.6 1.5 4.5.7 5.7-1.2.4-.6.8.2.8 1.7 0 1.6.4 2.6 1 2.2.6-.3 1-.1 1 .6 0 .9.3 1 1.1.2.7-.7 1.8-.4 3.5 1.4 1.4 1.4 3.1 2.3 3.8 2 1.4-.6 4.1.8 4.1 2 .1.4.6 1.8 1.3 3.1 2.6 4.6-1.1 5.3-14.5 2.7-4.3-.8-9.1-1.3-10.6-.9-1.5.3-6.9.7-12 .8s-11.1.8-13.4 1.6c-3.5 1.1-4.5 1.1-5.9-.1-2.6-2.2-1.1-7.6 3.3-11.6 5.3-4.8 7.5-5.5 11.3-3.7 3.5 1.8 10.2 1.1 12.1-1.2 1.4-1.7 6.7-1.5 7.4.4m99.2 1.4c-.3.7-.5.2-.5-1.2s.2-1.9.5-1.3c.2.7.2 1.9 0 2.5m-70.2-1.2c.3.5.1 1-.4 1-.6 0-1.1-.5-1.1-1 0-.6.2-1 .4-1 .3 0 .8.4 1.1 1m3.5 6c0 .5-.2 1-.4 1-.3 0-.8-.5-1.1-1-.3-.6-.1-1 .4-1 .6 0 1.1.4 1.1 1m6.4 9.6c.3.8.2 1.2-.4.9s-1-1-1-1.6c0-1.4.7-1.1 1.4.7m-23.9 1.9c2.8.8 7.7 1.5 10.8 1.6 5.3.2 7.4 1.5 6.9 4.1-.1.5.3.8 1 .8 1.5 0 9.2 7.9 8.4 8.7-.3.3-1.4-.2-2.5-1.1-2.5-2.2-3.4-.7-1.6 2.7.8 1.5 1.2 2.7.9 2.7s0 1 .7 2.1c.6 1.2.7 1.9.1 1.5-.5-.3-1.5.1-2.1.8-1 1.1-.8 1.7.6 2.4 1 .6 1.5 1.3 1.2 1.6s-1.5-.3-2.6-1.3c-1.3-1.3-2.5-1.6-3.4-1-1 .6-1 .9-.1.9.6 0 1.2.7 1.2 1.5 0 .7.7 1.8 1.6 2.3s1.5 1.5 1.2 2.2c-.2.8-1.5.1-3.6-1.9-1.8-1.8-3.2-2.9-3.2-2.6 0 .4-.6.2-1.4-.4-1-.8-1.6-.9-2.1-.1-.3.5 1 1.9 2.9 3.1 2 1.2 3.6 2.3 3.6 2.6 0 .2-.5.1-1-.2-.6-.4-2.1-.8-3.4-1.1-1.9-.3-2.3 0-2.1 1.3.2 1 .4 2.2.4 2.6.1.5.6.5 1.1.2.6-.3 1 .1 1 .9 0 1.9-1.1 2.1-2.8.4-1.6-1.6-1.6.4.1 2.1 1 1.1.8 1.1-1 .2-1.2-.6-2.6-1.8-3-2.5-.4-.8-1.1-1.5-1.5-1.6-.4 0-1.4-.3-2.2-.6s-2.2-.1-3.2.4c-1.4.8-1.2 1.4 2.2 5.3l3.9 4.4-4.1-3.3c-5.5-4.2-6.5-4.1-4.8.5 2.2 6.3 1.5 7.2-.9 1.2-1.3-3-3.1-6.6-4.1-8l-1.8-2.4.7 2.5c.4 1.4 1.5 3.7 2.6 5.2 2.5 3.6 2.4 4.6-.3 2.2-2.1-1.9-2.1-1.9-1.6.3.4 1.3.2 2.3-.3 2.3s-.9 1.3-.9 3c0 3.5-1.5 4-2.4.7-.6-2.1-.7-2.1-2.1.8l-1.3 3-.2-4c-.1-2.8-.4-3.4-.9-2.2-.4 1-1.1 1.8-1.5 1.7-.5-.1-1.2.4-1.7 1.1-.6 1-1 .7-1.7-1-.7-2.1-1-2.2-1.5-.7-.9 2.4-2.9.9-2.1-1.6.4-1.4.2-1.8-.5-1.4-.6.4-1.1 0-1.2-1.1-.1-1.7-.2-1.7-.6 0-.3 1.1-1.1 1.6-1.9 1.3-.9-.3-1.4.1-1.4 1.2 0 1.2-.9 1.8-2.6 2-1.8.1-2.4-.2-2.1-1.1 1.9-4.5 1.9-4.7.3-4.7-.9 0-1.6.4-1.6 1 0 .5-.7.7-1.5.3-1.4-.5-1.4-.8.1-2.4 1.4-1.5 1.9-1.7 2.6-.7.4.8.8.8.8.2 0-1.8-1.3-2.4-2.7-1.2-1.9 1.6-2.8.2-1.2-1.9 1.3-1.6 1.1-1.6-1.5.1l-2.9 1.8.7-2.6c.5-2 .3-2.6-.9-2.6-.9 0-1.4.4-1 .9.3.5 0 1.3-.6 1.7-.8.4-.9.3-.5-.4.7-1.2-2.3-3.2-4-2.5-1.5.5-2.3-5.1-1.2-7.1 1-1.8-.7-2.3-1.7-.6-1.4 2.2-2.2.8-1.5-2.6.8-3.2.7-3.4-.8-2.1-1 .8-2.4 1.8-3.2 2.2-1.3.8-1.3.7-.1-.9 1.2-1.4 1.2-1.9.2-2.5s-1-1.7-.3-4.5c.7-2.5.7-3.4 0-3-1.7 1.1.2-3.8 2.9-7.4 1.6-2.1 3.3-3.2 4.9-3.2 1.3 0 4.1-.9 6.1-2 3-1.6 5.6-1.9 14.6-1.9 6 0 11.2-.3 11.6-.6.8-.8 9.8.3 16.6 2m53.6 15.5c.5 0 .9.9.9 2.1 0 1.1-.5 1.9-1.2 1.7-2-.7-3.2-3.4-2.3-5.4.7-1.8.8-1.8 1.2-.2.3 1 .9 1.8 1.4 1.8m9.6 6.2c-.3.8-.6.5-.6-.6-.1-1.1.2-1.7.5-1.3.3.3.4 1.2.1 1.9m-115.9 8.2c-.7.8-1.5 1.2-1.7 1.1-.5-.6 1-2.5 2-2.5.5 0 .4.6-.3 1.4m87.7-.4c.3.5.1 1-.4 1-.6 0-1.1-.5-1.1-1 0-.6.2-1 .4-1 .3 0 .8.4 1.1 1m4.3 3.5c-.3.3-.9-.2-1.2-1.2-.6-1.4-.5-1.5.5-.6.7.7 1 1.5.7 1.8m3.2.6c0 .6-.4.7-1 .4-.5-.3-1-1.1-1-1.6 0-.6.5-.7 1-.4.6.3 1 1.1 1 1.6m-22.9 3.6c1.3 1.6 1.2 1.7-.3.4-1-.7-1.8-1.5-1.8-1.7 0-.8.8-.3 2.1 1.3m-65.1 3.7c0 .2-.8 1-1.7 1.7-1.6 1.3-1.7 1.2-.4-.4s2.1-2.1 2.1-1.3m20.9 9.4c0 1.1-.2 1.2-.6.4-.2-.6-.9-1-1.4-.6-1 .6-1.2-.9-.3-1.9 1-1 2.4.2 2.3 2.1m9.1 3.4c0 1.6-.3 1.9-1.1 1.1-.6-.6-.8-1.6-.5-2.2 1.1-1.7 1.6-1.3 1.6 1.1"/><path d="M327.7 184.1c1.2 1.2 2.5 2 2.8 1.7s-.7-1.3-2.2-2.3l-2.8-1.7zm-39.3 87.3c-5.1 2.6-10.7 7.6-8.6 7.6.7 0 1.2-.5 1.2-1 0-.6.5-1 1.1-1 .5 0 2.7-1.1 4.7-2.5 2.3-1.6 5.1-2.5 7.4-2.5 3.7 0 3.8.1 3.8 3.5 0 4.9 3.2 7.7 8.5 7.3 3.2-.2 4.4-.9 6.1-3.5 2.1-3.2 2.2-3.2 3.9-1.3 1 1.1 1.4 2 1 2-.5 0-.4.5.3 1.2.9.9 1.5.9 2.4 0 .7-.7 2.1-1.2 3.3-1.2 1.9-.1 1.9-.2-.5-2.2-5.2-4.4-14.9-8.1-22.4-8.5-6.1-.4-7.8-.1-12.2 2.1m-113.8 1.4c-.3.3-.6 1.5-.6 2.7 0 1.9 1.4 2.8 10.1 5.9 5.5 2 10.2 3.6 10.5 3.6.2 0 .4-.8.4-1.8 0-1.4-2.6-3.1-9.9-6.4-5.5-2.5-10.2-4.3-10.5-4M204 283c0 .5.5 1 1.1 1 .5 0 .7-.5.4-1-.3-.6-.8-1-1.1-1-.2 0-.4.4-.4 1m87 93.4c0 .9.5 1.6 1 1.6.6 0 1-.4 1-.9 0-.6-.4-1.3-1-1.6-.5-.3-1 .1-1 .9m-51.3 6.2c-.3.4-3.2.9-6.4 1.3l-5.8.6 2.2 2.2c1.2 1.2 1.9 2.3 1.7 2.6-.3.3.7.8 2.2 1.1 3.2.8 5.2 2.7 4.6 4.4-.2.7-.1 2 .2 2.8.5 1.4.8 1.4 2.2 0 .8-.9 2.5-1.4 3.7-1.2 2.2.4 2.3.6 1.2 4.1-.5 1.6-.4 1.6.7-.3.8-1.2 1.7-1.9 2.1-1.6.4.4.7 0 .7-.9 0-2.2 1.6-2.2 2.9 0 .8 1.5 1.2 1.6 2.3.4.9-1 1-1.2.1-.7-.7.4-1.3.2-1.3-.3 0-1.5 2.7-1.4 3.3.1.3.7.6.4.7-.7.1-2.7 2.2-5.3 3.8-4.7 1.6.5 4.3-2.8 3.7-4.5-.2-.7.2-1 1-.7s2.2 0 3.2-.6c1.6-1 1.6-1.1.1-.6-1 .3-1.8.1-1.8-.5 0-.5-1.7-.9-3.7-.8-2.1.2-4.8-.3-6-.9-2.2-1.2-16.5-1.7-17.6-.6m54.3 7.5c0 .5.5.7 1 .4.6-.3 1-.8 1-1.1 0-.2-.4-.4-1-.4-.5 0-1 .5-1 1.1M238.2 403c0 1.4.2 1.9.5 1.2.2-.6.2-1.8 0-2.5-.3-.6-.5-.1-.5 1.3m20.5 4.4c-.4 1-.1 1.3.8.9.8-.3 1.2-.9.9-1.4-.7-1.2-1.1-1.1-1.7.5m.5 4.6c0 1.4.2 1.9.5 1.2.2-.6.2-1.8 0-2.5-.3-.6-.5-.1-.5 1.3m-98.7-291.9c-.4.6-.5 1.2-.2 1.5.2.3.7-.2 1-1.1.7-1.7.1-2-.8-.4m-5.5 46.4c-.8.9-.8 1.5-.2 1.5 1.2 0 2.6-1.9 1.9-2.6-.2-.2-1 .2-1.7 1.1m110.4 174.9c-.3.9-1.1 1.3-1.6 1-.6-.4-.5.4.2 1.6 1.3 2.4 1.3 2.4 2.9-.7.7-1.4.8-2.4.1-2.8-.6-.3-1.3.1-1.6.9M278 345c0 .5.5 1 1.1 1 .5 0 .7-.5.4-1-.3-.6-.8-1-1.1-1-.2 0-.4.4-.4 1m72.3 4c0 2.5.2 3.5.4 2.2.2-1.2.2-3.2 0-4.5-.2-1.2-.4-.2-.4 2.3m-63.3-2.6c0 .2.8 1 1.8 1.7 1.5 1.3 1.6 1.2.3-.4s-2.1-2.1-2.1-1.3m57.2 8.1c0 1.6.2 2.2.5 1.2.2-.9.2-2.3 0-3-.3-.6-.5.1-.5 1.8m2.3-1.4c-.4.6-.5 1.2-.2 1.5.2.3.7-.2 1-1.1.7-1.7.1-2-.8-.4m-5.4.6c-.1.6-.4 2-.7 3-.5 1.5-.4 1.5.5.3s1.1-1.1 1.2 1c.1 1.4.3 1.8.6.9.2-.8-.1-2.6-.6-4-.5-1.3-1-1.9-1-1.2m-5.9 5.4c-.1.9-.5 3.2-.8 5-.5 2.6-.4 3.1.5 2.3.7-.7 1.1-2.8.8-5-.2-2.2-.4-3.2-.5-2.3m60.9 1c-1.3 1.1-4 2.2-6.1 2.5-3.6.6-3.8.8-4.4 5.1-.3 2.5-.6 8.8-.6 14v9.5l2.5-3c1.4-1.7 2.5-3.7 2.5-4.5 0-1.8 2.1-6.9 3.2-7.7.8-.6 6.1-17 5.6-17.5-.2-.2-1.4.5-2.7 1.6m-58 5.5c0 1.1.3 1.4.6.6.3-.7.2-1.6-.1-1.9-.3-.4-.6.2-.5 1.3m-9.9 5.4c-.3 3.9.9 7.4 1.9 5.8 1.2-1.8 1.1-3.1 0-2.3-.5.3-1.2-.9-1.4-2.7-.3-2.5-.4-2.7-.5-.8m11.8-1.1c0 .7-.4.9-1 .6-.7-.4-.7.3 0 2 .6 1.5.8 3 .5 3.5-.3.4.2 1 .9 1.3 1.2.5 1.4-.3 1-3.5-.3-3.8-1.4-6.7-1.4-3.9m-13.9 1.7c0 1.1.3 1.4.6.6.3-.7.2-1.6-.1-1.9-.3-.4-.6.2-.5 1.3m60.2 37.8.7 7.5-6 8c-4.7 6.2-21 25.4-24 28.1-.3.3-3.4 3.7-7 7.5-3.5 3.9-17 18-30 31.5s-26.8 27.9-30.8 32c-4 4.2-8.4 9.9-9.8 12.9-2.4 5.1-2.6 6.1-2 14 1.4 17.2 2.2 14.6-8.7 26.5-5.4 5.8-10.2 10.6-10.7 10.6-.4 0-1.6-3.4-2.5-7.6-1.7-7.5-5.3-17.2-11.5-30.9-4.3-9.5-4.3-16.1-.1-27 3.8-9.7 7.1-23.1 7.1-28.8 0-2.3-1.2-10.7-2.6-18.7-2.8-16.4-4.3-25.8-4.4-28-.1-2.3-13.2 13.4-24.3 29.1-4 5.6-5.6 7-10.9 9.4-3.5 1.6-10.4 4.7-15.3 7-28.1 13.2-81.9 34.5-86.9 34.5-3.2 0-11.8 4.4-16 8.1-5.2 4.5-10.6 11.9-15.2 21l-3.9 7.4-.3 28.2-.3 28.3H510l-.1-60.3v-60.2l-7.7-3.7c-4.2-2.1-15.1-7.7-24.2-12.5s-20.8-11-26-13.8c-8.5-4.5-10.8-6.4-22.6-18.5-7.4-7.7-15.5-17.1-18.5-21.8-3.6-5.6-6.5-8.7-8.7-9.8-2.5-1.2-4.1-3.2-6.5-8.2-2.6-5.3-3.9-6.9-6.6-8l-3.4-1.3z"/></svg>
