<svg width="17" height="18" viewBox="0 0 17 18" fill="none" xmlns="http://www.w3.org/2000/svg">
<rect y="0.5" width="17" height="17" rx="3" fill="#00A084"/>
<path d="M13.8298 5.94393L7.6778 11.8375C7.62421 11.889 7.56054 11.9299 7.49044 11.9578C7.42033 11.9856 7.34517 12 7.26926 12C7.19335 12 7.11819 11.9856 7.04809 11.9578C6.97798 11.9299 6.91431 11.889 6.86073 11.8375L4.16922 9.25906C4.11557 9.20766 4.07301 9.14665 4.04398 9.0795C4.01494 9.01234 4 8.94037 4 8.86769C4 8.795 4.01494 8.72303 4.04398 8.65588C4.07301 8.58873 4.11557 8.52771 4.16922 8.47632C4.22287 8.42492 4.28656 8.38415 4.35666 8.35634C4.42675 8.32852 4.50188 8.31421 4.57775 8.31421C4.65362 8.31421 4.72875 8.32852 4.79885 8.35634C4.86895 8.38415 4.93264 8.42492 4.98629 8.47632L7.26974 10.6638L13.0137 5.16211C13.1221 5.05831 13.269 5 13.4222 5C13.5755 5 13.7224 5.05831 13.8308 5.16211C13.9391 5.26591 14 5.40669 14 5.55348C14 5.70027 13.9391 5.84105 13.8308 5.94485L13.8298 5.94393Z" fill="#F3FFF3"/>
</svg>
