<svg width="636" height="264" viewBox="0 0 636 264" fill="none" xmlns="http://www.w3.org/2000/svg">
<rect width="636" height="264" fill="#C2E9E7"/>
<path d="M20 29.4483V22H44V29.4483C44 36.0757 38.6274 41.4483 32 41.4483C25.3726 41.4483 20 36.0757 20 29.4483Z" fill="#559991"/>
<circle cx="32" cy="22" r="12" fill="#C2E9E7"/>
<path d="M32 10C38.6274 10 44 15.3726 44 22C44 22.2781 43.9893 22.5538 43.9707 22.8271C43.5453 16.586 38.3491 11.6553 32 11.6553C25.6509 11.6553 20.4537 16.586 20.0283 22.8271C20.0097 22.5538 20 22.278 20 22C20 15.3726 25.3726 10 32 10Z" fill="#FBFFFD"/>
<path d="M64 29.4483V22H88V29.4483C88 36.0757 82.6274 41.4483 76 41.4483C69.3726 41.4483 64 36.0757 64 29.4483Z" fill="#559991"/>
<circle cx="76" cy="22" r="12" fill="#C2E9E7"/>
<path d="M76 10C82.6274 10 88 15.3726 88 22C88 22.2781 87.9893 22.5538 87.9707 22.8271C87.5453 16.586 82.3491 11.6553 76 11.6553C69.6509 11.6553 64.4537 16.586 64.0283 22.8271C64.0097 22.5538 64 22.278 64 22C64 15.3726 69.3726 10 76 10Z" fill="#FBFFFD"/>
<path d="M108 29.4483V22H132V29.4483C132 36.0757 126.627 41.4483 120 41.4483C113.373 41.4483 108 36.0757 108 29.4483Z" fill="#559991"/>
<circle cx="120" cy="22" r="12" fill="#C2E9E7"/>
<path d="M120 10C126.627 10 132 15.3726 132 22C132 22.2781 131.989 22.5538 131.971 22.8271C131.545 16.586 126.349 11.6553 120 11.6553C113.651 11.6553 108.454 16.586 108.028 22.8271C108.01 22.5538 108 22.278 108 22C108 15.3726 113.373 10 120 10Z" fill="#FBFFFD"/>
<path d="M152 29.4483V22H176V29.4483C176 36.0757 170.627 41.4483 164 41.4483C157.373 41.4483 152 36.0757 152 29.4483Z" fill="#559991"/>
<circle cx="164" cy="22" r="12" fill="#C2E9E7"/>
<path d="M164 10C170.627 10 176 15.3726 176 22C176 22.2781 175.989 22.5538 175.971 22.8271C175.545 16.586 170.349 11.6553 164 11.6553C157.651 11.6553 152.454 16.586 152.028 22.8271C152.01 22.5538 152 22.278 152 22C152 15.3726 157.373 10 164 10Z" fill="#FBFFFD"/>
<path d="M196 29.4483V22H220V29.4483C220 36.0757 214.627 41.4483 208 41.4483C201.373 41.4483 196 36.0757 196 29.4483Z" fill="#559991"/>
<circle cx="208" cy="22" r="12" fill="#C2E9E7"/>
<path d="M208 10C214.627 10 220 15.3726 220 22C220 22.2781 219.989 22.5538 219.971 22.8271C219.545 16.586 214.349 11.6553 208 11.6553C201.651 11.6553 196.454 16.586 196.028 22.8271C196.01 22.5538 196 22.278 196 22C196 15.3726 201.373 10 208 10Z" fill="#FBFFFD"/>
<path d="M240 29.4483V22H264V29.4483C264 36.0757 258.627 41.4483 252 41.4483C245.373 41.4483 240 36.0757 240 29.4483Z" fill="#559991"/>
<circle cx="252" cy="22" r="12" fill="#C2E9E7"/>
<path d="M252 10C258.627 10 264 15.3726 264 22C264 22.2781 263.989 22.5538 263.971 22.8271C263.545 16.586 258.349 11.6553 252 11.6553C245.651 11.6553 240.454 16.586 240.028 22.8271C240.01 22.5538 240 22.278 240 22C240 15.3726 245.373 10 252 10Z" fill="#FBFFFD"/>
<path d="M284 29.4483V22H308V29.4483C308 36.0757 302.627 41.4483 296 41.4483C289.373 41.4483 284 36.0757 284 29.4483Z" fill="#559991"/>
<circle cx="296" cy="22" r="12" fill="#C2E9E7"/>
<path d="M296 10C302.627 10 308 15.3726 308 22C308 22.2781 307.989 22.5538 307.971 22.8271C307.545 16.586 302.349 11.6553 296 11.6553C289.651 11.6553 284.454 16.586 284.028 22.8271C284.01 22.5538 284 22.278 284 22C284 15.3726 289.373 10 296 10Z" fill="#FBFFFD"/>
<path d="M328 29.4483V22H352V29.4483C352 36.0757 346.627 41.4483 340 41.4483C333.373 41.4483 328 36.0757 328 29.4483Z" fill="#559991"/>
<circle cx="340" cy="22" r="12" fill="#C2E9E7"/>
<path d="M340 10C346.627 10 352 15.3726 352 22C352 22.2781 351.989 22.5538 351.971 22.8271C351.545 16.586 346.349 11.6553 340 11.6553C333.651 11.6553 328.454 16.586 328.028 22.8271C328.01 22.5538 328 22.278 328 22C328 15.3726 333.373 10 340 10Z" fill="#FBFFFD"/>
<path d="M372 29.4483V22H396V29.4483C396 36.0757 390.627 41.4483 384 41.4483C377.373 41.4483 372 36.0757 372 29.4483Z" fill="#559991"/>
<circle cx="384" cy="22" r="12" fill="#C2E9E7"/>
<path d="M384 10C390.627 10 396 15.3726 396 22C396 22.2781 395.989 22.5538 395.971 22.8271C395.545 16.586 390.349 11.6553 384 11.6553C377.651 11.6553 372.454 16.586 372.028 22.8271C372.01 22.5538 372 22.278 372 22C372 15.3726 377.373 10 384 10Z" fill="#FBFFFD"/>
<path d="M416 29.4483V22H440V29.4483C440 36.0757 434.627 41.4483 428 41.4483C421.373 41.4483 416 36.0757 416 29.4483Z" fill="#559991"/>
<circle cx="428" cy="22" r="12" fill="#C2E9E7"/>
<path d="M428 10C434.627 10 440 15.3726 440 22C440 22.2781 439.989 22.5538 439.971 22.8271C439.545 16.586 434.349 11.6553 428 11.6553C421.651 11.6553 416.454 16.586 416.028 22.8271C416.01 22.5538 416 22.278 416 22C416 15.3726 421.373 10 428 10Z" fill="#FBFFFD"/>
<path d="M460 29.4483V22H484V29.4483C484 36.0757 478.627 41.4483 472 41.4483C465.373 41.4483 460 36.0757 460 29.4483Z" fill="#559991"/>
<circle cx="472" cy="22" r="12" fill="#C2E9E7"/>
<path d="M472 10C478.627 10 484 15.3726 484 22C484 22.2781 483.989 22.5538 483.971 22.8271C483.545 16.586 478.349 11.6553 472 11.6553C465.651 11.6553 460.454 16.586 460.028 22.8271C460.01 22.5538 460 22.278 460 22C460 15.3726 465.373 10 472 10Z" fill="#FBFFFD"/>
<path d="M504 29.4483V22H528V29.4483C528 36.0757 522.627 41.4483 516 41.4483C509.373 41.4483 504 36.0757 504 29.4483Z" fill="#559991"/>
<circle cx="516" cy="22" r="12" fill="#C2E9E7"/>
<path d="M516 10C522.627 10 528 15.3726 528 22C528 22.2781 527.989 22.5538 527.971 22.8271C527.545 16.586 522.349 11.6553 516 11.6553C509.651 11.6553 504.454 16.586 504.028 22.8271C504.01 22.5538 504 22.278 504 22C504 15.3726 509.373 10 516 10Z" fill="#FBFFFD"/>
<path d="M548 29.4483V22H572V29.4483C572 36.0757 566.627 41.4483 560 41.4483C553.373 41.4483 548 36.0757 548 29.4483Z" fill="#559991"/>
<circle cx="560" cy="22" r="12" fill="#C2E9E7"/>
<path d="M560 10C566.627 10 572 15.3726 572 22C572 22.2781 571.989 22.5538 571.971 22.8271C571.545 16.586 566.349 11.6553 560 11.6553C553.651 11.6553 548.454 16.586 548.028 22.8271C548.01 22.5538 548 22.278 548 22C548 15.3726 553.373 10 560 10Z" fill="#FBFFFD"/>
<path d="M592 29.4483V22H616V29.4483C616 36.0757 610.627 41.4483 604 41.4483C597.373 41.4483 592 36.0757 592 29.4483Z" fill="#559991"/>
<circle cx="604" cy="22" r="12" fill="#C2E9E7"/>
<path d="M604 10C610.627 10 616 15.3726 616 22C616 22.2781 615.989 22.5538 615.971 22.8271C615.545 16.586 610.349 11.6553 604 11.6553C597.651 11.6553 592.454 16.586 592.028 22.8271C592.01 22.5538 592 22.278 592 22C592 15.3726 597.373 10 604 10Z" fill="#FBFFFD"/>
<path d="M20 73.4483V66H44V73.4483C44 80.0757 38.6274 85.4483 32 85.4483C25.3726 85.4483 20 80.0757 20 73.4483Z" fill="#559991"/>
<circle cx="32" cy="66" r="12" fill="#C2E9E7"/>
<path d="M32 54C38.6274 54 44 59.3726 44 66C44 66.2781 43.9893 66.5538 43.9707 66.8271C43.5453 60.586 38.3491 55.6553 32 55.6553C25.6509 55.6553 20.4537 60.586 20.0283 66.8271C20.0097 66.5538 20 66.278 20 66C20 59.3726 25.3726 54 32 54Z" fill="#FBFFFD"/>
<path d="M64 73.4483V66H88V73.4483C88 80.0757 82.6274 85.4483 76 85.4483C69.3726 85.4483 64 80.0757 64 73.4483Z" fill="#559991"/>
<circle cx="76" cy="66" r="12" fill="#C2E9E7"/>
<path d="M76 54C82.6274 54 88 59.3726 88 66C88 66.2781 87.9893 66.5538 87.9707 66.8271C87.5453 60.586 82.3491 55.6553 76 55.6553C69.6509 55.6553 64.4537 60.586 64.0283 66.8271C64.0097 66.5538 64 66.278 64 66C64 59.3726 69.3726 54 76 54Z" fill="#FBFFFD"/>
<path d="M108 73.4483V66H132V73.4483C132 80.0757 126.627 85.4483 120 85.4483C113.373 85.4483 108 80.0757 108 73.4483Z" fill="#559991"/>
<circle cx="120" cy="66" r="12" fill="#C2E9E7"/>
<path d="M120 54C126.627 54 132 59.3726 132 66C132 66.2781 131.989 66.5538 131.971 66.8271C131.545 60.586 126.349 55.6553 120 55.6553C113.651 55.6553 108.454 60.586 108.028 66.8271C108.01 66.5538 108 66.278 108 66C108 59.3726 113.373 54 120 54Z" fill="#FBFFFD"/>
<path d="M152 73.4483V66H176V73.4483C176 80.0757 170.627 85.4483 164 85.4483C157.373 85.4483 152 80.0757 152 73.4483Z" fill="#559991"/>
<circle cx="164" cy="66" r="12" fill="#C2E9E7"/>
<path d="M164 54C170.627 54 176 59.3726 176 66C176 66.2781 175.989 66.5538 175.971 66.8271C175.545 60.586 170.349 55.6553 164 55.6553C157.651 55.6553 152.454 60.586 152.028 66.8271C152.01 66.5538 152 66.278 152 66C152 59.3726 157.373 54 164 54Z" fill="#FBFFFD"/>
<path d="M196 73.4483V66H220V73.4483C220 80.0757 214.627 85.4483 208 85.4483C201.373 85.4483 196 80.0757 196 73.4483Z" fill="#559991"/>
<circle cx="208" cy="66" r="12" fill="#C2E9E7"/>
<path d="M208 54C214.627 54 220 59.3726 220 66C220 66.2781 219.989 66.5538 219.971 66.8271C219.545 60.586 214.349 55.6553 208 55.6553C201.651 55.6553 196.454 60.586 196.028 66.8271C196.01 66.5538 196 66.278 196 66C196 59.3726 201.373 54 208 54Z" fill="#FBFFFD"/>
<path d="M240 73.4483V66H264V73.4483C264 80.0757 258.627 85.4483 252 85.4483C245.373 85.4483 240 80.0757 240 73.4483Z" fill="#559991"/>
<circle cx="252" cy="66" r="12" fill="#C2E9E7"/>
<path d="M252 54C258.627 54 264 59.3726 264 66C264 66.2781 263.989 66.5538 263.971 66.8271C263.545 60.586 258.349 55.6553 252 55.6553C245.651 55.6553 240.454 60.586 240.028 66.8271C240.01 66.5538 240 66.278 240 66C240 59.3726 245.373 54 252 54Z" fill="#FBFFFD"/>
<path d="M284 73.4483V66H308V73.4483C308 80.0757 302.627 85.4483 296 85.4483C289.373 85.4483 284 80.0757 284 73.4483Z" fill="#559991"/>
<circle cx="296" cy="66" r="12" fill="#C2E9E7"/>
<path d="M296 54C302.627 54 308 59.3726 308 66C308 66.2781 307.989 66.5538 307.971 66.8271C307.545 60.586 302.349 55.6553 296 55.6553C289.651 55.6553 284.454 60.586 284.028 66.8271C284.01 66.5538 284 66.278 284 66C284 59.3726 289.373 54 296 54Z" fill="#FBFFFD"/>
<path d="M328 73.4483V66H352V73.4483C352 80.0757 346.627 85.4483 340 85.4483C333.373 85.4483 328 80.0757 328 73.4483Z" fill="#559991"/>
<circle cx="340" cy="66" r="12" fill="#C2E9E7"/>
<path d="M340 54C346.627 54 352 59.3726 352 66C352 66.2781 351.989 66.5538 351.971 66.8271C351.545 60.586 346.349 55.6553 340 55.6553C333.651 55.6553 328.454 60.586 328.028 66.8271C328.01 66.5538 328 66.278 328 66C328 59.3726 333.373 54 340 54Z" fill="#FBFFFD"/>
<path d="M372 73.4483V66H396V73.4483C396 80.0757 390.627 85.4483 384 85.4483C377.373 85.4483 372 80.0757 372 73.4483Z" fill="#559991"/>
<circle cx="384" cy="66" r="12" fill="#C2E9E7"/>
<path d="M384 54C390.627 54 396 59.3726 396 66C396 66.2781 395.989 66.5538 395.971 66.8271C395.545 60.586 390.349 55.6553 384 55.6553C377.651 55.6553 372.454 60.586 372.028 66.8271C372.01 66.5538 372 66.278 372 66C372 59.3726 377.373 54 384 54Z" fill="#FBFFFD"/>
<path d="M416 73.4483V66H440V73.4483C440 80.0757 434.627 85.4483 428 85.4483C421.373 85.4483 416 80.0757 416 73.4483Z" fill="#559991"/>
<circle cx="428" cy="66" r="12" fill="#C2E9E7"/>
<path d="M428 54C434.627 54 440 59.3726 440 66C440 66.2781 439.989 66.5538 439.971 66.8271C439.545 60.586 434.349 55.6553 428 55.6553C421.651 55.6553 416.454 60.586 416.028 66.8271C416.01 66.5538 416 66.278 416 66C416 59.3726 421.373 54 428 54Z" fill="#FBFFFD"/>
<path d="M460 73.4483V66H484V73.4483C484 80.0757 478.627 85.4483 472 85.4483C465.373 85.4483 460 80.0757 460 73.4483Z" fill="#559991"/>
<circle cx="472" cy="66" r="12" fill="#C2E9E7"/>
<path d="M472 54C478.627 54 484 59.3726 484 66C484 66.2781 483.989 66.5538 483.971 66.8271C483.545 60.586 478.349 55.6553 472 55.6553C465.651 55.6553 460.454 60.586 460.028 66.8271C460.01 66.5538 460 66.278 460 66C460 59.3726 465.373 54 472 54Z" fill="#FBFFFD"/>
<path d="M504 73.4483V66H528V73.4483C528 80.0757 522.627 85.4483 516 85.4483C509.373 85.4483 504 80.0757 504 73.4483Z" fill="#559991"/>
<circle cx="516" cy="66" r="12" fill="#C2E9E7"/>
<path d="M516 54C522.627 54 528 59.3726 528 66C528 66.2781 527.989 66.5538 527.971 66.8271C527.545 60.586 522.349 55.6553 516 55.6553C509.651 55.6553 504.454 60.586 504.028 66.8271C504.01 66.5538 504 66.278 504 66C504 59.3726 509.373 54 516 54Z" fill="#FBFFFD"/>
<path d="M548 73.4483V66H572V73.4483C572 80.0757 566.627 85.4483 560 85.4483C553.373 85.4483 548 80.0757 548 73.4483Z" fill="#559991"/>
<circle cx="560" cy="66" r="12" fill="#C2E9E7"/>
<path d="M560 54C566.627 54 572 59.3726 572 66C572 66.2781 571.989 66.5538 571.971 66.8271C571.545 60.586 566.349 55.6553 560 55.6553C553.651 55.6553 548.454 60.586 548.028 66.8271C548.01 66.5538 548 66.278 548 66C548 59.3726 553.373 54 560 54Z" fill="#FBFFFD"/>
<path d="M592 73.4483V66H616V73.4483C616 80.0757 610.627 85.4483 604 85.4483C597.373 85.4483 592 80.0757 592 73.4483Z" fill="#559991"/>
<circle cx="604" cy="66" r="12" fill="#C2E9E7"/>
<path d="M604 54C610.627 54 616 59.3726 616 66C616 66.2781 615.989 66.5538 615.971 66.8271C615.545 60.586 610.349 55.6553 604 55.6553C597.651 55.6553 592.454 60.586 592.028 66.8271C592.01 66.5538 592 66.278 592 66C592 59.3726 597.373 54 604 54Z" fill="#FBFFFD"/>
<path d="M20 117.448V110H44V117.448C44 124.076 38.6274 129.448 32 129.448C25.3726 129.448 20 124.076 20 117.448Z" fill="#559991"/>
<circle cx="32" cy="110" r="12" fill="#C2E9E7"/>
<path d="M32 98C38.6274 98 44 103.373 44 110C44 110.278 43.9893 110.554 43.9707 110.827C43.5453 104.586 38.3491 99.6553 32 99.6553C25.6509 99.6553 20.4537 104.586 20.0283 110.827C20.0097 110.554 20 110.278 20 110C20 103.373 25.3726 98 32 98Z" fill="#FBFFFD"/>
<path d="M64 117.448V110H88V117.448C88 124.076 82.6274 129.448 76 129.448C69.3726 129.448 64 124.076 64 117.448Z" fill="#559991"/>
<circle cx="76" cy="110" r="12" fill="#C2E9E7"/>
<path d="M76 98C82.6274 98 88 103.373 88 110C88 110.278 87.9893 110.554 87.9707 110.827C87.5453 104.586 82.3491 99.6553 76 99.6553C69.6509 99.6553 64.4537 104.586 64.0283 110.827C64.0097 110.554 64 110.278 64 110C64 103.373 69.3726 98 76 98Z" fill="#FBFFFD"/>
<path d="M108 117.448V110H132V117.448C132 124.076 126.627 129.448 120 129.448C113.373 129.448 108 124.076 108 117.448Z" fill="#559991"/>
<circle cx="120" cy="110" r="12" fill="#C2E9E7"/>
<path d="M120 98C126.627 98 132 103.373 132 110C132 110.278 131.989 110.554 131.971 110.827C131.545 104.586 126.349 99.6553 120 99.6553C113.651 99.6553 108.454 104.586 108.028 110.827C108.01 110.554 108 110.278 108 110C108 103.373 113.373 98 120 98Z" fill="#FBFFFD"/>
<path d="M152 117.448V110H176V117.448C176 124.076 170.627 129.448 164 129.448C157.373 129.448 152 124.076 152 117.448Z" fill="#559991"/>
<circle cx="164" cy="110" r="12" fill="#C2E9E7"/>
<path d="M164 98C170.627 98 176 103.373 176 110C176 110.278 175.989 110.554 175.971 110.827C175.545 104.586 170.349 99.6553 164 99.6553C157.651 99.6553 152.454 104.586 152.028 110.827C152.01 110.554 152 110.278 152 110C152 103.373 157.373 98 164 98Z" fill="#FBFFFD"/>
<path d="M196 117.448V110H220V117.448C220 124.076 214.627 129.448 208 129.448C201.373 129.448 196 124.076 196 117.448Z" fill="#559991"/>
<circle cx="208" cy="110" r="12" fill="#C2E9E7"/>
<path d="M208 98C214.627 98 220 103.373 220 110C220 110.278 219.989 110.554 219.971 110.827C219.545 104.586 214.349 99.6553 208 99.6553C201.651 99.6553 196.454 104.586 196.028 110.827C196.01 110.554 196 110.278 196 110C196 103.373 201.373 98 208 98Z" fill="#FBFFFD"/>
<path d="M240 117.448V110H264V117.448C264 124.076 258.627 129.448 252 129.448C245.373 129.448 240 124.076 240 117.448Z" fill="#559991"/>
<circle cx="252" cy="110" r="12" fill="#C2E9E7"/>
<path d="M252 98C258.627 98 264 103.373 264 110C264 110.278 263.989 110.554 263.971 110.827C263.545 104.586 258.349 99.6553 252 99.6553C245.651 99.6553 240.454 104.586 240.028 110.827C240.01 110.554 240 110.278 240 110C240 103.373 245.373 98 252 98Z" fill="#FBFFFD"/>
<path d="M284 117.448V110H308V117.448C308 124.076 302.627 129.448 296 129.448C289.373 129.448 284 124.076 284 117.448Z" fill="#559991"/>
<circle cx="296" cy="110" r="12" fill="#C2E9E7"/>
<path d="M296 98C302.627 98 308 103.373 308 110C308 110.278 307.989 110.554 307.971 110.827C307.545 104.586 302.349 99.6553 296 99.6553C289.651 99.6553 284.454 104.586 284.028 110.827C284.01 110.554 284 110.278 284 110C284 103.373 289.373 98 296 98Z" fill="#FBFFFD"/>
<path d="M328 117.448V110H352V117.448C352 124.076 346.627 129.448 340 129.448C333.373 129.448 328 124.076 328 117.448Z" fill="#559991"/>
<circle cx="340" cy="110" r="12" fill="#C2E9E7"/>
<path d="M340 98C346.627 98 352 103.373 352 110C352 110.278 351.989 110.554 351.971 110.827C351.545 104.586 346.349 99.6553 340 99.6553C333.651 99.6553 328.454 104.586 328.028 110.827C328.01 110.554 328 110.278 328 110C328 103.373 333.373 98 340 98Z" fill="#FBFFFD"/>
<path d="M372 117.448V110H396V117.448C396 124.076 390.627 129.448 384 129.448C377.373 129.448 372 124.076 372 117.448Z" fill="#559991"/>
<circle cx="384" cy="110" r="12" fill="#C2E9E7"/>
<path d="M384 98C390.627 98 396 103.373 396 110C396 110.278 395.989 110.554 395.971 110.827C395.545 104.586 390.349 99.6553 384 99.6553C377.651 99.6553 372.454 104.586 372.028 110.827C372.01 110.554 372 110.278 372 110C372 103.373 377.373 98 384 98Z" fill="#FBFFFD"/>
<path d="M416 117.448V110H440V117.448C440 124.076 434.627 129.448 428 129.448C421.373 129.448 416 124.076 416 117.448Z" fill="#559991"/>
<circle cx="428" cy="110" r="12" fill="#C2E9E7"/>
<path d="M428 98C434.627 98 440 103.373 440 110C440 110.278 439.989 110.554 439.971 110.827C439.545 104.586 434.349 99.6553 428 99.6553C421.651 99.6553 416.454 104.586 416.028 110.827C416.01 110.554 416 110.278 416 110C416 103.373 421.373 98 428 98Z" fill="#FBFFFD"/>
<path d="M460 117.448V110H484V117.448C484 124.076 478.627 129.448 472 129.448C465.373 129.448 460 124.076 460 117.448Z" fill="#559991"/>
<circle cx="472" cy="110" r="12" fill="#C2E9E7"/>
<path d="M472 98C478.627 98 484 103.373 484 110C484 110.278 483.989 110.554 483.971 110.827C483.545 104.586 478.349 99.6553 472 99.6553C465.651 99.6553 460.454 104.586 460.028 110.827C460.01 110.554 460 110.278 460 110C460 103.373 465.373 98 472 98Z" fill="#FBFFFD"/>
<path d="M504 117.448V110H528V117.448C528 124.076 522.627 129.448 516 129.448C509.373 129.448 504 124.076 504 117.448Z" fill="#559991"/>
<circle cx="516" cy="110" r="12" fill="#C2E9E7"/>
<path d="M516 98C522.627 98 528 103.373 528 110C528 110.278 527.989 110.554 527.971 110.827C527.545 104.586 522.349 99.6553 516 99.6553C509.651 99.6553 504.454 104.586 504.028 110.827C504.01 110.554 504 110.278 504 110C504 103.373 509.373 98 516 98Z" fill="#FBFFFD"/>
<path d="M548 117.448V110H572V117.448C572 124.076 566.627 129.448 560 129.448C553.373 129.448 548 124.076 548 117.448Z" fill="#559991"/>
<circle cx="560" cy="110" r="12" fill="#C2E9E7"/>
<path d="M560 98C566.627 98 572 103.373 572 110C572 110.278 571.989 110.554 571.971 110.827C571.545 104.586 566.349 99.6553 560 99.6553C553.651 99.6553 548.454 104.586 548.028 110.827C548.01 110.554 548 110.278 548 110C548 103.373 553.373 98 560 98Z" fill="#FBFFFD"/>
<path d="M592 117.448V110H616V117.448C616 124.076 610.627 129.448 604 129.448C597.373 129.448 592 124.076 592 117.448Z" fill="#559991"/>
<circle cx="604" cy="110" r="12" fill="#C2E9E7"/>
<path d="M604 98C610.627 98 616 103.373 616 110C616 110.278 615.989 110.554 615.971 110.827C615.545 104.586 610.349 99.6553 604 99.6553C597.651 99.6553 592.454 104.586 592.028 110.827C592.01 110.554 592 110.278 592 110C592 103.373 597.373 98 604 98Z" fill="#FBFFFD"/>
<path d="M20 161.448V154H44V161.448C44 168.076 38.6274 173.448 32 173.448C25.3726 173.448 20 168.076 20 161.448Z" fill="#559991"/>
<circle cx="32" cy="154" r="12" fill="#C2E9E7"/>
<path d="M32 142C38.6274 142 44 147.373 44 154C44 154.278 43.9893 154.554 43.9707 154.827C43.5453 148.586 38.3491 143.655 32 143.655C25.6509 143.655 20.4537 148.586 20.0283 154.827C20.0097 154.554 20 154.278 20 154C20 147.373 25.3726 142 32 142Z" fill="#FBFFFD"/>
<path d="M64 161.448V154H88V161.448C88 168.076 82.6274 173.448 76 173.448C69.3726 173.448 64 168.076 64 161.448Z" fill="#559991"/>
<circle cx="76" cy="154" r="12" fill="#C2E9E7"/>
<path d="M76 142C82.6274 142 88 147.373 88 154C88 154.278 87.9893 154.554 87.9707 154.827C87.5453 148.586 82.3491 143.655 76 143.655C69.6509 143.655 64.4537 148.586 64.0283 154.827C64.0097 154.554 64 154.278 64 154C64 147.373 69.3726 142 76 142Z" fill="#FBFFFD"/>
<path d="M108 161.448V154H132V161.448C132 168.076 126.627 173.448 120 173.448C113.373 173.448 108 168.076 108 161.448Z" fill="#559991"/>
<circle cx="120" cy="154" r="12" fill="#C2E9E7"/>
<path d="M120 142C126.627 142 132 147.373 132 154C132 154.278 131.989 154.554 131.971 154.827C131.545 148.586 126.349 143.655 120 143.655C113.651 143.655 108.454 148.586 108.028 154.827C108.01 154.554 108 154.278 108 154C108 147.373 113.373 142 120 142Z" fill="#FBFFFD"/>
<path d="M152 161.448V154H176V161.448C176 168.076 170.627 173.448 164 173.448C157.373 173.448 152 168.076 152 161.448Z" fill="#559991"/>
<circle cx="164" cy="154" r="12" fill="#C2E9E7"/>
<path d="M164 142C170.627 142 176 147.373 176 154C176 154.278 175.989 154.554 175.971 154.827C175.545 148.586 170.349 143.655 164 143.655C157.651 143.655 152.454 148.586 152.028 154.827C152.01 154.554 152 154.278 152 154C152 147.373 157.373 142 164 142Z" fill="#FBFFFD"/>
<path d="M196 161.448V154H220V161.448C220 168.076 214.627 173.448 208 173.448C201.373 173.448 196 168.076 196 161.448Z" fill="#559991"/>
<circle cx="208" cy="154" r="12" fill="#C2E9E7"/>
<path d="M208 142C214.627 142 220 147.373 220 154C220 154.278 219.989 154.554 219.971 154.827C219.545 148.586 214.349 143.655 208 143.655C201.651 143.655 196.454 148.586 196.028 154.827C196.01 154.554 196 154.278 196 154C196 147.373 201.373 142 208 142Z" fill="#FBFFFD"/>
<path d="M240 161.448V154H264V161.448C264 168.076 258.627 173.448 252 173.448C245.373 173.448 240 168.076 240 161.448Z" fill="#559991"/>
<circle cx="252" cy="154" r="12" fill="#C2E9E7"/>
<path d="M252 142C258.627 142 264 147.373 264 154C264 154.278 263.989 154.554 263.971 154.827C263.545 148.586 258.349 143.655 252 143.655C245.651 143.655 240.454 148.586 240.028 154.827C240.01 154.554 240 154.278 240 154C240 147.373 245.373 142 252 142Z" fill="#FBFFFD"/>
<path d="M284 161.448V154H308V161.448C308 168.076 302.627 173.448 296 173.448C289.373 173.448 284 168.076 284 161.448Z" fill="#559991"/>
<circle cx="296" cy="154" r="12" fill="#C2E9E7"/>
<path d="M296 142C302.627 142 308 147.373 308 154C308 154.278 307.989 154.554 307.971 154.827C307.545 148.586 302.349 143.655 296 143.655C289.651 143.655 284.454 148.586 284.028 154.827C284.01 154.554 284 154.278 284 154C284 147.373 289.373 142 296 142Z" fill="#FBFFFD"/>
<path d="M328 161.448V154H352V161.448C352 168.076 346.627 173.448 340 173.448C333.373 173.448 328 168.076 328 161.448Z" fill="#559991"/>
<circle cx="340" cy="154" r="12" fill="#C2E9E7"/>
<path d="M340 142C346.627 142 352 147.373 352 154C352 154.278 351.989 154.554 351.971 154.827C351.545 148.586 346.349 143.655 340 143.655C333.651 143.655 328.454 148.586 328.028 154.827C328.01 154.554 328 154.278 328 154C328 147.373 333.373 142 340 142Z" fill="#FBFFFD"/>
<path d="M372 161.448V154H396V161.448C396 168.076 390.627 173.448 384 173.448C377.373 173.448 372 168.076 372 161.448Z" fill="#559991"/>
<circle cx="384" cy="154" r="12" fill="#C2E9E7"/>
<path d="M384 142C390.627 142 396 147.373 396 154C396 154.278 395.989 154.554 395.971 154.827C395.545 148.586 390.349 143.655 384 143.655C377.651 143.655 372.454 148.586 372.028 154.827C372.01 154.554 372 154.278 372 154C372 147.373 377.373 142 384 142Z" fill="#FBFFFD"/>
<path d="M416 161.448V154H440V161.448C440 168.076 434.627 173.448 428 173.448C421.373 173.448 416 168.076 416 161.448Z" fill="#559991"/>
<circle cx="428" cy="154" r="12" fill="#C2E9E7"/>
<path d="M428 142C434.627 142 440 147.373 440 154C440 154.278 439.989 154.554 439.971 154.827C439.545 148.586 434.349 143.655 428 143.655C421.651 143.655 416.454 148.586 416.028 154.827C416.01 154.554 416 154.278 416 154C416 147.373 421.373 142 428 142Z" fill="#FBFFFD"/>
<path d="M460 161.448V154H484V161.448C484 168.076 478.627 173.448 472 173.448C465.373 173.448 460 168.076 460 161.448Z" fill="#559991"/>
<circle cx="472" cy="154" r="12" fill="#C2E9E7"/>
<path d="M472 142C478.627 142 484 147.373 484 154C484 154.278 483.989 154.554 483.971 154.827C483.545 148.586 478.349 143.655 472 143.655C465.651 143.655 460.454 148.586 460.028 154.827C460.01 154.554 460 154.278 460 154C460 147.373 465.373 142 472 142Z" fill="#FBFFFD"/>
<path d="M504 161.448V154H528V161.448C528 168.076 522.627 173.448 516 173.448C509.373 173.448 504 168.076 504 161.448Z" fill="#559991"/>
<circle cx="516" cy="154" r="12" fill="#C2E9E7"/>
<path d="M516 142C522.627 142 528 147.373 528 154C528 154.278 527.989 154.554 527.971 154.827C527.545 148.586 522.349 143.655 516 143.655C509.651 143.655 504.454 148.586 504.028 154.827C504.01 154.554 504 154.278 504 154C504 147.373 509.373 142 516 142Z" fill="#FBFFFD"/>
<path d="M548 161.448V154H572V161.448C572 168.076 566.627 173.448 560 173.448C553.373 173.448 548 168.076 548 161.448Z" fill="#559991"/>
<circle cx="560" cy="154" r="12" fill="#C2E9E7"/>
<path d="M560 142C566.627 142 572 147.373 572 154C572 154.278 571.989 154.554 571.971 154.827C571.545 148.586 566.349 143.655 560 143.655C553.651 143.655 548.454 148.586 548.028 154.827C548.01 154.554 548 154.278 548 154C548 147.373 553.373 142 560 142Z" fill="#FBFFFD"/>
<path d="M592 161.448V154H616V161.448C616 168.076 610.627 173.448 604 173.448C597.373 173.448 592 168.076 592 161.448Z" fill="#559991"/>
<circle cx="604" cy="154" r="12" fill="#C2E9E7"/>
<path d="M604 142C610.627 142 616 147.373 616 154C616 154.278 615.989 154.554 615.971 154.827C615.545 148.586 610.349 143.655 604 143.655C597.651 143.655 592.454 148.586 592.028 154.827C592.01 154.554 592 154.278 592 154C592 147.373 597.373 142 604 142Z" fill="#FBFFFD"/>
<path d="M20 205.448V198H44V205.448C44 212.076 38.6274 217.448 32 217.448C25.3726 217.448 20 212.076 20 205.448Z" fill="#559991"/>
<circle cx="32" cy="198" r="12" fill="#C2E9E7"/>
<path d="M32 186C38.6274 186 44 191.373 44 198C44 198.278 43.9893 198.554 43.9707 198.827C43.5453 192.586 38.3491 187.655 32 187.655C25.6509 187.655 20.4537 192.586 20.0283 198.827C20.0097 198.554 20 198.278 20 198C20 191.373 25.3726 186 32 186Z" fill="#FBFFFD"/>
<path d="M64 205.448V198H88V205.448C88 212.076 82.6274 217.448 76 217.448C69.3726 217.448 64 212.076 64 205.448Z" fill="#559991"/>
<circle cx="76" cy="198" r="12" fill="#C2E9E7"/>
<path d="M76 186C82.6274 186 88 191.373 88 198C88 198.278 87.9893 198.554 87.9707 198.827C87.5453 192.586 82.3491 187.655 76 187.655C69.6509 187.655 64.4537 192.586 64.0283 198.827C64.0097 198.554 64 198.278 64 198C64 191.373 69.3726 186 76 186Z" fill="#FBFFFD"/>
<path d="M108 205.448V198H132V205.448C132 212.076 126.627 217.448 120 217.448C113.373 217.448 108 212.076 108 205.448Z" fill="#559991"/>
<circle cx="120" cy="198" r="12" fill="#C2E9E7"/>
<path d="M120 186C126.627 186 132 191.373 132 198C132 198.278 131.989 198.554 131.971 198.827C131.545 192.586 126.349 187.655 120 187.655C113.651 187.655 108.454 192.586 108.028 198.827C108.01 198.554 108 198.278 108 198C108 191.373 113.373 186 120 186Z" fill="#FBFFFD"/>
<path d="M152 205.448V198H176V205.448C176 212.076 170.627 217.448 164 217.448C157.373 217.448 152 212.076 152 205.448Z" fill="#559991"/>
<circle cx="164" cy="198" r="12" fill="#C2E9E7"/>
<path d="M164 186C170.627 186 176 191.373 176 198C176 198.278 175.989 198.554 175.971 198.827C175.545 192.586 170.349 187.655 164 187.655C157.651 187.655 152.454 192.586 152.028 198.827C152.01 198.554 152 198.278 152 198C152 191.373 157.373 186 164 186Z" fill="#FBFFFD"/>
<path d="M196 205.448V198H220V205.448C220 212.076 214.627 217.448 208 217.448C201.373 217.448 196 212.076 196 205.448Z" fill="#559991"/>
<circle cx="208" cy="198" r="12" fill="#C2E9E7"/>
<path d="M208 186C214.627 186 220 191.373 220 198C220 198.278 219.989 198.554 219.971 198.827C219.545 192.586 214.349 187.655 208 187.655C201.651 187.655 196.454 192.586 196.028 198.827C196.01 198.554 196 198.278 196 198C196 191.373 201.373 186 208 186Z" fill="#FBFFFD"/>
<path d="M240 205.448V198H264V205.448C264 212.076 258.627 217.448 252 217.448C245.373 217.448 240 212.076 240 205.448Z" fill="#559991"/>
<circle cx="252" cy="198" r="12" fill="#C2E9E7"/>
<path d="M252 186C258.627 186 264 191.373 264 198C264 198.278 263.989 198.554 263.971 198.827C263.545 192.586 258.349 187.655 252 187.655C245.651 187.655 240.454 192.586 240.028 198.827C240.01 198.554 240 198.278 240 198C240 191.373 245.373 186 252 186Z" fill="#FBFFFD"/>
<path d="M284 205.448V198H308V205.448C308 212.076 302.627 217.448 296 217.448C289.373 217.448 284 212.076 284 205.448Z" fill="#559991"/>
<circle cx="296" cy="198" r="12" fill="#C2E9E7"/>
<path d="M296 186C302.627 186 308 191.373 308 198C308 198.278 307.989 198.554 307.971 198.827C307.545 192.586 302.349 187.655 296 187.655C289.651 187.655 284.454 192.586 284.028 198.827C284.01 198.554 284 198.278 284 198C284 191.373 289.373 186 296 186Z" fill="#FBFFFD"/>
<path d="M328 205.448V198H352V205.448C352 212.076 346.627 217.448 340 217.448C333.373 217.448 328 212.076 328 205.448Z" fill="#559991"/>
<circle cx="340" cy="198" r="12" fill="#C2E9E7"/>
<path d="M340 186C346.627 186 352 191.373 352 198C352 198.278 351.989 198.554 351.971 198.827C351.545 192.586 346.349 187.655 340 187.655C333.651 187.655 328.454 192.586 328.028 198.827C328.01 198.554 328 198.278 328 198C328 191.373 333.373 186 340 186Z" fill="#FBFFFD"/>
<path d="M372 205.448V198H396V205.448C396 212.076 390.627 217.448 384 217.448C377.373 217.448 372 212.076 372 205.448Z" fill="#559991"/>
<circle cx="384" cy="198" r="12" fill="#C2E9E7"/>
<path d="M384 186C390.627 186 396 191.373 396 198C396 198.278 395.989 198.554 395.971 198.827C395.545 192.586 390.349 187.655 384 187.655C377.651 187.655 372.454 192.586 372.028 198.827C372.01 198.554 372 198.278 372 198C372 191.373 377.373 186 384 186Z" fill="#FBFFFD"/>
<path d="M416 205.448V198H440V205.448C440 212.076 434.627 217.448 428 217.448C421.373 217.448 416 212.076 416 205.448Z" fill="#559991"/>
<circle cx="428" cy="198" r="12" fill="#C2E9E7"/>
<path d="M428 186C434.627 186 440 191.373 440 198C440 198.278 439.989 198.554 439.971 198.827C439.545 192.586 434.349 187.655 428 187.655C421.651 187.655 416.454 192.586 416.028 198.827C416.01 198.554 416 198.278 416 198C416 191.373 421.373 186 428 186Z" fill="#FBFFFD"/>
<path d="M460 205.448V198H484V205.448C484 212.076 478.627 217.448 472 217.448C465.373 217.448 460 212.076 460 205.448Z" fill="#559991"/>
<circle cx="472" cy="198" r="12" fill="#C2E9E7"/>
<path d="M472 186C478.627 186 484 191.373 484 198C484 198.278 483.989 198.554 483.971 198.827C483.545 192.586 478.349 187.655 472 187.655C465.651 187.655 460.454 192.586 460.028 198.827C460.01 198.554 460 198.278 460 198C460 191.373 465.373 186 472 186Z" fill="#FBFFFD"/>
<path d="M504 205.448V198H528V205.448C528 212.076 522.627 217.448 516 217.448C509.373 217.448 504 212.076 504 205.448Z" fill="#559991"/>
<circle cx="516" cy="198" r="12" fill="#C2E9E7"/>
<path d="M516 186C522.627 186 528 191.373 528 198C528 198.278 527.989 198.554 527.971 198.827C527.545 192.586 522.349 187.655 516 187.655C509.651 187.655 504.454 192.586 504.028 198.827C504.01 198.554 504 198.278 504 198C504 191.373 509.373 186 516 186Z" fill="#FBFFFD"/>
<path d="M548 205.448V198H572V205.448C572 212.076 566.627 217.448 560 217.448C553.373 217.448 548 212.076 548 205.448Z" fill="#559991"/>
<circle cx="560" cy="198" r="12" fill="#C2E9E7"/>
<path d="M560 186C566.627 186 572 191.373 572 198C572 198.278 571.989 198.554 571.971 198.827C571.545 192.586 566.349 187.655 560 187.655C553.651 187.655 548.454 192.586 548.028 198.827C548.01 198.554 548 198.278 548 198C548 191.373 553.373 186 560 186Z" fill="#FBFFFD"/>
<path d="M592 205.448V198H616V205.448C616 212.076 610.627 217.448 604 217.448C597.373 217.448 592 212.076 592 205.448Z" fill="#559991"/>
<circle cx="604" cy="198" r="12" fill="#C2E9E7"/>
<path d="M604 186C610.627 186 616 191.373 616 198C616 198.278 615.989 198.554 615.971 198.827C615.545 192.586 610.349 187.655 604 187.655C597.651 187.655 592.454 192.586 592.028 198.827C592.01 198.554 592 198.278 592 198C592 191.373 597.373 186 604 186Z" fill="#FBFFFD"/>
<path d="M20 249.448V242H44V249.448C44 256.076 38.6274 261.448 32 261.448C25.3726 261.448 20 256.076 20 249.448Z" fill="#559991"/>
<circle cx="32" cy="242" r="12" fill="#C2E9E7"/>
<path d="M32 230C38.6274 230 44 235.373 44 242C44 242.278 43.9893 242.554 43.9707 242.827C43.5453 236.586 38.3491 231.655 32 231.655C25.6509 231.655 20.4537 236.586 20.0283 242.827C20.0097 242.554 20 242.278 20 242C20 235.373 25.3726 230 32 230Z" fill="#FBFFFD"/>
<path d="M64 249.448V242H88V249.448C88 256.076 82.6274 261.448 76 261.448C69.3726 261.448 64 256.076 64 249.448Z" fill="#559991"/>
<circle cx="76" cy="242" r="12" fill="#C2E9E7"/>
<path d="M76 230C82.6274 230 88 235.373 88 242C88 242.278 87.9893 242.554 87.9707 242.827C87.5453 236.586 82.3491 231.655 76 231.655C69.6509 231.655 64.4537 236.586 64.0283 242.827C64.0097 242.554 64 242.278 64 242C64 235.373 69.3726 230 76 230Z" fill="#FBFFFD"/>
<path d="M108 249.448V242H132V249.448C132 256.076 126.627 261.448 120 261.448C113.373 261.448 108 256.076 108 249.448Z" fill="#559991"/>
<circle cx="120" cy="242" r="12" fill="#C2E9E7"/>
<path d="M120 230C126.627 230 132 235.373 132 242C132 242.278 131.989 242.554 131.971 242.827C131.545 236.586 126.349 231.655 120 231.655C113.651 231.655 108.454 236.586 108.028 242.827C108.01 242.554 108 242.278 108 242C108 235.373 113.373 230 120 230Z" fill="#FBFFFD"/>
<path d="M152 249.448V242H176V249.448C176 256.076 170.627 261.448 164 261.448C157.373 261.448 152 256.076 152 249.448Z" fill="#559991"/>
<circle cx="164" cy="242" r="12" fill="#C2E9E7"/>
<path d="M164 230C170.627 230 176 235.373 176 242C176 242.278 175.989 242.554 175.971 242.827C175.545 236.586 170.349 231.655 164 231.655C157.651 231.655 152.454 236.586 152.028 242.827C152.01 242.554 152 242.278 152 242C152 235.373 157.373 230 164 230Z" fill="#FBFFFD"/>
<path d="M196 249.448V242H220V249.448C220 256.076 214.627 261.448 208 261.448C201.373 261.448 196 256.076 196 249.448Z" fill="#559991"/>
<circle cx="208" cy="242" r="12" fill="#C2E9E7"/>
<path d="M208 230C214.627 230 220 235.373 220 242C220 242.278 219.989 242.554 219.971 242.827C219.545 236.586 214.349 231.655 208 231.655C201.651 231.655 196.454 236.586 196.028 242.827C196.01 242.554 196 242.278 196 242C196 235.373 201.373 230 208 230Z" fill="#FBFFFD"/>
<path d="M240 249.448V242H264V249.448C264 256.076 258.627 261.448 252 261.448C245.373 261.448 240 256.076 240 249.448Z" fill="#559991"/>
<circle cx="252" cy="242" r="12" fill="#C2E9E7"/>
<path d="M252 230C258.627 230 264 235.373 264 242C264 242.278 263.989 242.554 263.971 242.827C263.545 236.586 258.349 231.655 252 231.655C245.651 231.655 240.454 236.586 240.028 242.827C240.01 242.554 240 242.278 240 242C240 235.373 245.373 230 252 230Z" fill="#FBFFFD"/>
<path d="M284 249.448V242H308V249.448C308 256.076 302.627 261.448 296 261.448C289.373 261.448 284 256.076 284 249.448Z" fill="#559991"/>
<circle cx="296" cy="242" r="12" fill="#C2E9E7"/>
<path d="M296 230C302.627 230 308 235.373 308 242C308 242.278 307.989 242.554 307.971 242.827C307.545 236.586 302.349 231.655 296 231.655C289.651 231.655 284.454 236.586 284.028 242.827C284.01 242.554 284 242.278 284 242C284 235.373 289.373 230 296 230Z" fill="#FBFFFD"/>
<path d="M328 249.448V242H352V249.448C352 256.076 346.627 261.448 340 261.448C333.373 261.448 328 256.076 328 249.448Z" fill="#559991"/>
<circle cx="340" cy="242" r="12" fill="#C2E9E7"/>
<path d="M340 230C346.627 230 352 235.373 352 242C352 242.278 351.989 242.554 351.971 242.827C351.545 236.586 346.349 231.655 340 231.655C333.651 231.655 328.454 236.586 328.028 242.827C328.01 242.554 328 242.278 328 242C328 235.373 333.373 230 340 230Z" fill="#FBFFFD"/>
<path d="M372 249.448V242H396V249.448C396 256.076 390.627 261.448 384 261.448C377.373 261.448 372 256.076 372 249.448Z" fill="#559991"/>
<circle cx="384" cy="242" r="12" fill="#C2E9E7"/>
<path d="M384 230C390.627 230 396 235.373 396 242C396 242.278 395.989 242.554 395.971 242.827C395.545 236.586 390.349 231.655 384 231.655C377.651 231.655 372.454 236.586 372.028 242.827C372.01 242.554 372 242.278 372 242C372 235.373 377.373 230 384 230Z" fill="#FBFFFD"/>
<path d="M416 249.448V242H440V249.448C440 256.076 434.627 261.448 428 261.448C421.373 261.448 416 256.076 416 249.448Z" fill="#559991"/>
<circle cx="428" cy="242" r="12" fill="#C2E9E7"/>
<path d="M428 230C434.627 230 440 235.373 440 242C440 242.278 439.989 242.554 439.971 242.827C439.545 236.586 434.349 231.655 428 231.655C421.651 231.655 416.454 236.586 416.028 242.827C416.01 242.554 416 242.278 416 242C416 235.373 421.373 230 428 230Z" fill="#FBFFFD"/>
<path d="M460 249.448V242H484V249.448C484 256.076 478.627 261.448 472 261.448C465.373 261.448 460 256.076 460 249.448Z" fill="#559991"/>
<circle cx="472" cy="242" r="12" fill="#C2E9E7"/>
<path d="M472 230C478.627 230 484 235.373 484 242C484 242.278 483.989 242.554 483.971 242.827C483.545 236.586 478.349 231.655 472 231.655C465.651 231.655 460.454 236.586 460.028 242.827C460.01 242.554 460 242.278 460 242C460 235.373 465.373 230 472 230Z" fill="#FBFFFD"/>
<path d="M504 249.448V242H528V249.448C528 256.076 522.627 261.448 516 261.448C509.373 261.448 504 256.076 504 249.448Z" fill="#559991"/>
<circle cx="516" cy="242" r="12" fill="#C2E9E7"/>
<path d="M516 230C522.627 230 528 235.373 528 242C528 242.278 527.989 242.554 527.971 242.827C527.545 236.586 522.349 231.655 516 231.655C509.651 231.655 504.454 236.586 504.028 242.827C504.01 242.554 504 242.278 504 242C504 235.373 509.373 230 516 230Z" fill="#FBFFFD"/>
<path d="M548 249.448V242H572V249.448C572 256.076 566.627 261.448 560 261.448C553.373 261.448 548 256.076 548 249.448Z" fill="#559991"/>
<circle cx="560" cy="242" r="12" fill="#C2E9E7"/>
<path d="M560 230C566.627 230 572 235.373 572 242C572 242.278 571.989 242.554 571.971 242.827C571.545 236.586 566.349 231.655 560 231.655C553.651 231.655 548.454 236.586 548.028 242.827C548.01 242.554 548 242.278 548 242C548 235.373 553.373 230 560 230Z" fill="#FBFFFD"/>
<path d="M592 249.448V242H616V249.448C616 256.076 610.627 261.448 604 261.448C597.373 261.448 592 256.076 592 249.448Z" fill="#559991"/>
<circle cx="604" cy="242" r="12" fill="#C2E9E7"/>
<path d="M604 230C610.627 230 616 235.373 616 242C616 242.278 615.989 242.554 615.971 242.827C615.545 236.586 610.349 231.655 604 231.655C597.651 231.655 592.454 236.586 592.028 242.827C592.01 242.554 592 242.278 592 242C592 235.373 597.373 230 604 230Z" fill="#FBFFFD"/>
</svg>
