<svg width="180" height="180" viewBox="0 0 180 180" fill="none" xmlns="http://www.w3.org/2000/svg">
<g clip-path="url(#clip0_1826_12128)">
<path d="M0 9C0 4.02944 4.02944 0 9 0H171C175.971 0 180 4.02944 180 9V171C180 175.971 175.971 180 171 180H9C4.02944 180 0 175.971 0 171V9Z" fill="#C2E9E7"/>
<rect width="180" height="180" rx="9" fill="#C2E9E7"/>
<path d="M12 29.4483V22H36V29.4483C36 36.0757 30.6274 41.4483 24 41.4483C17.3726 41.4483 12 36.0757 12 29.4483Z" fill="#559991"/>
<circle cx="24" cy="22" r="12" fill="#C2E9E7"/>
<path d="M24 10C30.6274 10 36 15.3726 36 22C36 22.2781 35.9893 22.5538 35.9707 22.8271C35.5453 16.586 30.3491 11.6553 24 11.6553C17.6509 11.6553 12.4537 16.586 12.0283 22.8271C12.0097 22.5538 12 22.278 12 22C12 15.3726 17.3726 10 24 10Z" fill="#FBFFFD"/>
<path d="M56 29.4483V22H80V29.4483C80 36.0757 74.6274 41.4483 68 41.4483C61.3726 41.4483 56 36.0757 56 29.4483Z" fill="#559991"/>
<circle cx="68" cy="22" r="12" fill="#C2E9E7"/>
<path d="M68 10C74.6274 10 80 15.3726 80 22C80 22.2781 79.9893 22.5538 79.9707 22.8271C79.5453 16.586 74.3491 11.6553 68 11.6553C61.6509 11.6553 56.4537 16.586 56.0283 22.8271C56.0097 22.5538 56 22.278 56 22C56 15.3726 61.3726 10 68 10Z" fill="#FBFFFD"/>
<path d="M100 29.4483V22H124V29.4483C124 36.0757 118.627 41.4483 112 41.4483C105.373 41.4483 100 36.0757 100 29.4483Z" fill="#559991"/>
<circle cx="112" cy="22" r="12" fill="#C2E9E7"/>
<path d="M112 10C118.627 10 124 15.3726 124 22C124 22.2781 123.989 22.5538 123.971 22.8271C123.545 16.586 118.349 11.6553 112 11.6553C105.651 11.6553 100.454 16.586 100.028 22.8271C100.01 22.5538 100 22.278 100 22C100 15.3726 105.373 10 112 10Z" fill="#FBFFFD"/>
<path d="M144 29.4483V22H168V29.4483C168 36.0757 162.627 41.4483 156 41.4483C149.373 41.4483 144 36.0757 144 29.4483Z" fill="#559991"/>
<circle cx="156" cy="22" r="12" fill="#C2E9E7"/>
<path d="M156 10C162.627 10 168 15.3726 168 22C168 22.2781 167.989 22.5538 167.971 22.8271C167.545 16.586 162.349 11.6553 156 11.6553C149.651 11.6553 144.454 16.586 144.028 22.8271C144.01 22.5538 144 22.278 144 22C144 15.3726 149.373 10 156 10Z" fill="#FBFFFD"/>
<path d="M12 73.4483V66H36V73.4483C36 80.0757 30.6274 85.4483 24 85.4483C17.3726 85.4483 12 80.0757 12 73.4483Z" fill="#559991"/>
<circle cx="24" cy="66" r="12" fill="#C2E9E7"/>
<path d="M24 54C30.6274 54 36 59.3726 36 66C36 66.2781 35.9893 66.5538 35.9707 66.8271C35.5453 60.586 30.3491 55.6553 24 55.6553C17.6509 55.6553 12.4537 60.586 12.0283 66.8271C12.0097 66.5538 12 66.278 12 66C12 59.3726 17.3726 54 24 54Z" fill="#FBFFFD"/>
<path d="M56 73.4483V66H80V73.4483C80 80.0757 74.6274 85.4483 68 85.4483C61.3726 85.4483 56 80.0757 56 73.4483Z" fill="#559991"/>
<circle cx="68" cy="66" r="12" fill="#C2E9E7"/>
<path d="M68 54C74.6274 54 80 59.3726 80 66C80 66.2781 79.9893 66.5538 79.9707 66.8271C79.5453 60.586 74.3491 55.6553 68 55.6553C61.6509 55.6553 56.4537 60.586 56.0283 66.8271C56.0097 66.5538 56 66.278 56 66C56 59.3726 61.3726 54 68 54Z" fill="#FBFFFD"/>
<path d="M100 73.4483V66H124V73.4483C124 80.0757 118.627 85.4483 112 85.4483C105.373 85.4483 100 80.0757 100 73.4483Z" fill="#559991"/>
<circle cx="112" cy="66" r="12" fill="#C2E9E7"/>
<path d="M112 54C118.627 54 124 59.3726 124 66C124 66.2781 123.989 66.5538 123.971 66.8271C123.545 60.586 118.349 55.6553 112 55.6553C105.651 55.6553 100.454 60.586 100.028 66.8271C100.01 66.5538 100 66.278 100 66C100 59.3726 105.373 54 112 54Z" fill="#FBFFFD"/>
<path d="M144 73.4483V66H168V73.4483C168 80.0757 162.627 85.4483 156 85.4483C149.373 85.4483 144 80.0757 144 73.4483Z" fill="#559991"/>
<circle cx="156" cy="66" r="12" fill="#C2E9E7"/>
<path d="M156 54C162.627 54 168 59.3726 168 66C168 66.2781 167.989 66.5538 167.971 66.8271C167.545 60.586 162.349 55.6553 156 55.6553C149.651 55.6553 144.454 60.586 144.028 66.8271C144.01 66.5538 144 66.278 144 66C144 59.3726 149.373 54 156 54Z" fill="#FBFFFD"/>
<path d="M12 117.448V110H36V117.448C36 124.076 30.6274 129.448 24 129.448C17.3726 129.448 12 124.076 12 117.448Z" fill="#559991"/>
<circle cx="24" cy="110" r="12" fill="#C2E9E7"/>
<path d="M24 98C30.6274 98 36 103.373 36 110C36 110.278 35.9893 110.554 35.9707 110.827C35.5453 104.586 30.3491 99.6553 24 99.6553C17.6509 99.6553 12.4537 104.586 12.0283 110.827C12.0097 110.554 12 110.278 12 110C12 103.373 17.3726 98 24 98Z" fill="#FBFFFD"/>
<path d="M56 117.448V110H80V117.448C80 124.076 74.6274 129.448 68 129.448C61.3726 129.448 56 124.076 56 117.448Z" fill="#559991"/>
<circle cx="68" cy="110" r="12" fill="#C2E9E7"/>
<path d="M68 98C74.6274 98 80 103.373 80 110C80 110.278 79.9893 110.554 79.9707 110.827C79.5453 104.586 74.3491 99.6553 68 99.6553C61.6509 99.6553 56.4537 104.586 56.0283 110.827C56.0097 110.554 56 110.278 56 110C56 103.373 61.3726 98 68 98Z" fill="#FBFFFD"/>
<path d="M100 117.448V110H124V117.448C124 124.076 118.627 129.448 112 129.448C105.373 129.448 100 124.076 100 117.448Z" fill="#559991"/>
<circle cx="112" cy="110" r="12" fill="#C2E9E7"/>
<path d="M112 98C118.627 98 124 103.373 124 110C124 110.278 123.989 110.554 123.971 110.827C123.545 104.586 118.349 99.6553 112 99.6553C105.651 99.6553 100.454 104.586 100.028 110.827C100.01 110.554 100 110.278 100 110C100 103.373 105.373 98 112 98Z" fill="#FBFFFD"/>
<path d="M144 117.448V110H168V117.448C168 124.076 162.627 129.448 156 129.448C149.373 129.448 144 124.076 144 117.448Z" fill="#559991"/>
<circle cx="156" cy="110" r="12" fill="#C2E9E7"/>
<path d="M156 98C162.627 98 168 103.373 168 110C168 110.278 167.989 110.554 167.971 110.827C167.545 104.586 162.349 99.6553 156 99.6553C149.651 99.6553 144.454 104.586 144.028 110.827C144.01 110.554 144 110.278 144 110C144 103.373 149.373 98 156 98Z" fill="#FBFFFD"/>
<path d="M12 161.448V154H36V161.448C36 168.076 30.6274 173.448 24 173.448C17.3726 173.448 12 168.076 12 161.448Z" fill="#559991"/>
<circle cx="24" cy="154" r="12" fill="#C2E9E7"/>
<path d="M24 142C30.6274 142 36 147.373 36 154C36 154.278 35.9893 154.554 35.9707 154.827C35.5453 148.586 30.3491 143.655 24 143.655C17.6509 143.655 12.4537 148.586 12.0283 154.827C12.0097 154.554 12 154.278 12 154C12 147.373 17.3726 142 24 142Z" fill="#FBFFFD"/>
<path d="M56 161.448V154H80V161.448C80 168.076 74.6274 173.448 68 173.448C61.3726 173.448 56 168.076 56 161.448Z" fill="#559991"/>
<circle cx="68" cy="154" r="12" fill="#C2E9E7"/>
<path d="M68 142C74.6274 142 80 147.373 80 154C80 154.278 79.9893 154.554 79.9707 154.827C79.5453 148.586 74.3491 143.655 68 143.655C61.6509 143.655 56.4537 148.586 56.0283 154.827C56.0097 154.554 56 154.278 56 154C56 147.373 61.3726 142 68 142Z" fill="#FBFFFD"/>
<path d="M100 161.448V154H124V161.448C124 168.076 118.627 173.448 112 173.448C105.373 173.448 100 168.076 100 161.448Z" fill="#559991"/>
<circle cx="112" cy="154" r="12" fill="#C2E9E7"/>
<path d="M112 142C118.627 142 124 147.373 124 154C124 154.278 123.989 154.554 123.971 154.827C123.545 148.586 118.349 143.655 112 143.655C105.651 143.655 100.454 148.586 100.028 154.827C100.01 154.554 100 154.278 100 154C100 147.373 105.373 142 112 142Z" fill="#FBFFFD"/>
<path d="M144 161.448V154H168V161.448C168 168.076 162.627 173.448 156 173.448C149.373 173.448 144 168.076 144 161.448Z" fill="#559991"/>
<circle cx="156" cy="154" r="12" fill="#C2E9E7"/>
<path d="M156 142C162.627 142 168 147.373 168 154C168 154.278 167.989 154.554 167.971 154.827C167.545 148.586 162.349 143.655 156 143.655C149.651 143.655 144.454 148.586 144.028 154.827C144.01 154.554 144 154.278 144 154C144 147.373 149.373 142 156 142Z" fill="#FBFFFD"/>
<mask id="path-51-outside-1_1826_12128" maskUnits="userSpaceOnUse" x="0" y="0" width="88" height="94" fill="black">
<rect fill="white" width="88" height="94"/>
<path d="M0 9C0 4.02944 4.02944 0 9 0H79C83.9706 0 88 4.02944 88 9V79C88 83.9706 83.9706 88 79 88H9C4.02944 88 0 83.9706 0 79V9Z"/>
</mask>
<path d="M0 9C0 4.02944 4.02944 0 9 0H79C83.9706 0 88 4.02944 88 9V79C88 83.9706 83.9706 88 79 88H9C4.02944 88 0 83.9706 0 79V9Z" fill="#ECF8F5"/>
<path d="M0 0H88H0ZM88 79C88 87.2843 81.2843 94 73 94H15C6.71573 94 0 87.2843 0 79C0 80.6569 4.02944 82 9 82H79C83.9706 82 88 80.6569 88 79ZM0 88V0V88ZM88 0V88V0Z" fill="#559991" mask="url(#path-51-outside-1_1826_12128)"/>
<mask id="path-53-outside-2_1826_12128" maskUnits="userSpaceOnUse" x="0" y="89" width="44" height="49" fill="black">
<rect fill="white" y="89" width="44" height="49"/>
<path d="M0 98C0 93.0294 4.02944 89 9 89H35C39.9706 89 44 93.0294 44 98V124C44 128.971 39.9706 133 35 133H9C4.02944 133 0 128.971 0 124V98Z"/>
</mask>
<path d="M0 98C0 93.0294 4.02944 89 9 89H35C39.9706 89 44 93.0294 44 98V124C44 128.971 39.9706 133 35 133H9C4.02944 133 0 128.971 0 124V98Z" fill="#ECF8F5"/>
<path d="M0 89H44H0ZM44 124C44 131.732 37.732 138 30 138H14C6.26801 138 0 131.732 0 124C0 126.209 4.02944 128 9 128H35C39.9706 128 44 126.209 44 124ZM0 133V89V133ZM44 89V133V89Z" fill="#559991" mask="url(#path-53-outside-2_1826_12128)"/>
<mask id="path-55-outside-3_1826_12128" maskUnits="userSpaceOnUse" x="89" y="0" width="90" height="49" fill="black">
<rect fill="white" x="89" width="90" height="49"/>
<path d="M89 9C89 4.02944 93.0294 0 98 0H170C174.971 0 179 4.02944 179 9V35C179 39.9706 174.971 44 170 44H98C93.0294 44 89 39.9706 89 35V9Z"/>
</mask>
<path d="M89 9C89 4.02944 93.0294 0 98 0H170C174.971 0 179 4.02944 179 9V35C179 39.9706 174.971 44 170 44H98C93.0294 44 89 39.9706 89 35V9Z" fill="#FBFFFD"/>
<path d="M89 0H179H89ZM179 35C179 42.732 172.732 49 165 49H103C95.268 49 89 42.732 89 35C89 37.2091 93.0294 39 98 39H170C174.971 39 179 37.2091 179 35ZM89 44V0V44ZM179 0V44V0Z" fill="#559991" mask="url(#path-55-outside-3_1826_12128)"/>
</g>
<defs>
<clipPath id="clip0_1826_12128">
<path d="M0 9C0 4.02944 4.02944 0 9 0H171C175.971 0 180 4.02944 180 9V171C180 175.971 175.971 180 171 180H9C4.02944 180 0 175.971 0 171V9Z" fill="white"/>
</clipPath>
</defs>
</svg>
