<svg width="94" height="440" viewBox="0 0 94 440" fill="none" xmlns="http://www.w3.org/2000/svg">
<g clip-path="url(#clip0_1826_12639)">
<rect width="94" height="440" rx="9" fill="#C2E9E7"/>
<path d="M13 29.4483V22H37V29.4483C37 36.0757 31.6274 41.4483 25 41.4483C18.3726 41.4483 13 36.0757 13 29.4483Z" fill="#559991"/>
<circle cx="25" cy="22" r="12" fill="#C2E9E7"/>
<path d="M25 10C31.6274 10 37 15.3726 37 22C37 22.2781 36.9893 22.5538 36.9707 22.8271C36.5453 16.586 31.3491 11.6553 25 11.6553C18.6509 11.6553 13.4537 16.586 13.0283 22.8271C13.0097 22.5538 13 22.278 13 22C13 15.3726 18.3726 10 25 10Z" fill="#FBFFFD"/>
<path d="M57 29.4483V22H81V29.4483C81 36.0757 75.6274 41.4483 69 41.4483C62.3726 41.4483 57 36.0757 57 29.4483Z" fill="#559991"/>
<circle cx="69" cy="22" r="12" fill="#C2E9E7"/>
<path d="M69 10C75.6274 10 81 15.3726 81 22C81 22.2781 80.9893 22.5538 80.9707 22.8271C80.5453 16.586 75.3491 11.6553 69 11.6553C62.6509 11.6553 57.4537 16.586 57.0283 22.8271C57.0097 22.5538 57 22.278 57 22C57 15.3726 62.3726 10 69 10Z" fill="#FBFFFD"/>
<path d="M13 73.4483V66H37V73.4483C37 80.0757 31.6274 85.4483 25 85.4483C18.3726 85.4483 13 80.0757 13 73.4483Z" fill="#559991"/>
<circle cx="25" cy="66" r="12" fill="#C2E9E7"/>
<path d="M25 54C31.6274 54 37 59.3726 37 66C37 66.2781 36.9893 66.5538 36.9707 66.8271C36.5453 60.586 31.3491 55.6553 25 55.6553C18.6509 55.6553 13.4537 60.586 13.0283 66.8271C13.0097 66.5538 13 66.278 13 66C13 59.3726 18.3726 54 25 54Z" fill="#FBFFFD"/>
<path d="M57 73.4483V66H81V73.4483C81 80.0757 75.6274 85.4483 69 85.4483C62.3726 85.4483 57 80.0757 57 73.4483Z" fill="#559991"/>
<circle cx="69" cy="66" r="12" fill="#C2E9E7"/>
<path d="M69 54C75.6274 54 81 59.3726 81 66C81 66.2781 80.9893 66.5538 80.9707 66.8271C80.5453 60.586 75.3491 55.6553 69 55.6553C62.6509 55.6553 57.4537 60.586 57.0283 66.8271C57.0097 66.5538 57 66.278 57 66C57 59.3726 62.3726 54 69 54Z" fill="#FBFFFD"/>
<path d="M13 117.448V110H37V117.448C37 124.076 31.6274 129.448 25 129.448C18.3726 129.448 13 124.076 13 117.448Z" fill="#559991"/>
<circle cx="25" cy="110" r="12" fill="#C2E9E7"/>
<path d="M25 98C31.6274 98 37 103.373 37 110C37 110.278 36.9893 110.554 36.9707 110.827C36.5453 104.586 31.3491 99.6553 25 99.6553C18.6509 99.6553 13.4537 104.586 13.0283 110.827C13.0097 110.554 13 110.278 13 110C13 103.373 18.3726 98 25 98Z" fill="#FBFFFD"/>
<path d="M57 117.448V110H81V117.448C81 124.076 75.6274 129.448 69 129.448C62.3726 129.448 57 124.076 57 117.448Z" fill="#559991"/>
<circle cx="69" cy="110" r="12" fill="#C2E9E7"/>
<path d="M69 98C75.6274 98 81 103.373 81 110C81 110.278 80.9893 110.554 80.9707 110.827C80.5453 104.586 75.3491 99.6553 69 99.6553C62.6509 99.6553 57.4537 104.586 57.0283 110.827C57.0097 110.554 57 110.278 57 110C57 103.373 62.3726 98 69 98Z" fill="#FBFFFD"/>
<path d="M13 161.448V154H37V161.448C37 168.076 31.6274 173.448 25 173.448C18.3726 173.448 13 168.076 13 161.448Z" fill="#559991"/>
<circle cx="25" cy="154" r="12" fill="#C2E9E7"/>
<path d="M25 142C31.6274 142 37 147.373 37 154C37 154.278 36.9893 154.554 36.9707 154.827C36.5453 148.586 31.3491 143.655 25 143.655C18.6509 143.655 13.4537 148.586 13.0283 154.827C13.0097 154.554 13 154.278 13 154C13 147.373 18.3726 142 25 142Z" fill="#FBFFFD"/>
<path d="M57 161.448V154H81V161.448C81 168.076 75.6274 173.448 69 173.448C62.3726 173.448 57 168.076 57 161.448Z" fill="#559991"/>
<circle cx="69" cy="154" r="12" fill="#C2E9E7"/>
<path d="M69 142C75.6274 142 81 147.373 81 154C81 154.278 80.9893 154.554 80.9707 154.827C80.5453 148.586 75.3491 143.655 69 143.655C62.6509 143.655 57.4537 148.586 57.0283 154.827C57.0097 154.554 57 154.278 57 154C57 147.373 62.3726 142 69 142Z" fill="#FBFFFD"/>
<path d="M13 205.448V198H37V205.448C37 212.076 31.6274 217.448 25 217.448C18.3726 217.448 13 212.076 13 205.448Z" fill="#559991"/>
<circle cx="25" cy="198" r="12" fill="#C2E9E7"/>
<path d="M25 186C31.6274 186 37 191.373 37 198C37 198.278 36.9893 198.554 36.9707 198.827C36.5453 192.586 31.3491 187.655 25 187.655C18.6509 187.655 13.4537 192.586 13.0283 198.827C13.0097 198.554 13 198.278 13 198C13 191.373 18.3726 186 25 186Z" fill="#FBFFFD"/>
<path d="M57 205.448V198H81V205.448C81 212.076 75.6274 217.448 69 217.448C62.3726 217.448 57 212.076 57 205.448Z" fill="#559991"/>
<circle cx="69" cy="198" r="12" fill="#C2E9E7"/>
<path d="M69 186C75.6274 186 81 191.373 81 198C81 198.278 80.9893 198.554 80.9707 198.827C80.5453 192.586 75.3491 187.655 69 187.655C62.6509 187.655 57.4537 192.586 57.0283 198.827C57.0097 198.554 57 198.278 57 198C57 191.373 62.3726 186 69 186Z" fill="#FBFFFD"/>
<path d="M13 249.448V242H37V249.448C37 256.076 31.6274 261.448 25 261.448C18.3726 261.448 13 256.076 13 249.448Z" fill="#559991"/>
<circle cx="25" cy="242" r="12" fill="#C2E9E7"/>
<path d="M25 230C31.6274 230 37 235.373 37 242C37 242.278 36.9893 242.554 36.9707 242.827C36.5453 236.586 31.3491 231.655 25 231.655C18.6509 231.655 13.4537 236.586 13.0283 242.827C13.0097 242.554 13 242.278 13 242C13 235.373 18.3726 230 25 230Z" fill="#FBFFFD"/>
<path d="M57 249.448V242H81V249.448C81 256.076 75.6274 261.448 69 261.448C62.3726 261.448 57 256.076 57 249.448Z" fill="#559991"/>
<circle cx="69" cy="242" r="12" fill="#C2E9E7"/>
<path d="M69 230C75.6274 230 81 235.373 81 242C81 242.278 80.9893 242.554 80.9707 242.827C80.5453 236.586 75.3491 231.655 69 231.655C62.6509 231.655 57.4537 236.586 57.0283 242.827C57.0097 242.554 57 242.278 57 242C57 235.373 62.3726 230 69 230Z" fill="#FBFFFD"/>
<path d="M13 293.448V286H37V293.448C37 300.076 31.6274 305.448 25 305.448C18.3726 305.448 13 300.076 13 293.448Z" fill="#559991"/>
<circle cx="25" cy="286" r="12" fill="#C2E9E7"/>
<path d="M25 274C31.6274 274 37 279.373 37 286C37 286.278 36.9893 286.554 36.9707 286.827C36.5453 280.586 31.3491 275.655 25 275.655C18.6509 275.655 13.4537 280.586 13.0283 286.827C13.0097 286.554 13 286.278 13 286C13 279.373 18.3726 274 25 274Z" fill="#FBFFFD"/>
<path d="M57 293.448V286H81V293.448C81 300.076 75.6274 305.448 69 305.448C62.3726 305.448 57 300.076 57 293.448Z" fill="#559991"/>
<circle cx="69" cy="286" r="12" fill="#C2E9E7"/>
<path d="M69 274C75.6274 274 81 279.373 81 286C81 286.278 80.9893 286.554 80.9707 286.827C80.5453 280.586 75.3491 275.655 69 275.655C62.6509 275.655 57.4537 280.586 57.0283 286.827C57.0097 286.554 57 286.278 57 286C57 279.373 62.3726 274 69 274Z" fill="#FBFFFD"/>
<path d="M13 337.448V330H37V337.448C37 344.076 31.6274 349.448 25 349.448C18.3726 349.448 13 344.076 13 337.448Z" fill="#559991"/>
<circle cx="25" cy="330" r="12" fill="#C2E9E7"/>
<path d="M25 318C31.6274 318 37 323.373 37 330C37 330.278 36.9893 330.554 36.9707 330.827C36.5453 324.586 31.3491 319.655 25 319.655C18.6509 319.655 13.4537 324.586 13.0283 330.827C13.0097 330.554 13 330.278 13 330C13 323.373 18.3726 318 25 318Z" fill="#FBFFFD"/>
<path d="M57 337.448V330H81V337.448C81 344.076 75.6274 349.448 69 349.448C62.3726 349.448 57 344.076 57 337.448Z" fill="#559991"/>
<circle cx="69" cy="330" r="12" fill="#C2E9E7"/>
<path d="M69 318C75.6274 318 81 323.373 81 330C81 330.278 80.9893 330.554 80.9707 330.827C80.5453 324.586 75.3491 319.655 69 319.655C62.6509 319.655 57.4537 324.586 57.0283 330.827C57.0097 330.554 57 330.278 57 330C57 323.373 62.3726 318 69 318Z" fill="#FBFFFD"/>
<path d="M13 381.448V374H37V381.448C37 388.076 31.6274 393.448 25 393.448C18.3726 393.448 13 388.076 13 381.448Z" fill="#559991"/>
<circle cx="25" cy="374" r="12" fill="#C2E9E7"/>
<path d="M25 362C31.6274 362 37 367.373 37 374C37 374.278 36.9893 374.554 36.9707 374.827C36.5453 368.586 31.3491 363.655 25 363.655C18.6509 363.655 13.4537 368.586 13.0283 374.827C13.0097 374.554 13 374.278 13 374C13 367.373 18.3726 362 25 362Z" fill="#FBFFFD"/>
<path d="M57 381.448V374H81V381.448C81 388.076 75.6274 393.448 69 393.448C62.3726 393.448 57 388.076 57 381.448Z" fill="#559991"/>
<circle cx="69" cy="374" r="12" fill="#C2E9E7"/>
<path d="M69 362C75.6274 362 81 367.373 81 374C81 374.278 80.9893 374.554 80.9707 374.827C80.5453 368.586 75.3491 363.655 69 363.655C62.6509 363.655 57.4537 368.586 57.0283 374.827C57.0097 374.554 57 374.278 57 374C57 367.373 62.3726 362 69 362Z" fill="#FBFFFD"/>
<path d="M13 425.448V418H37V425.448C37 432.076 31.6274 437.448 25 437.448C18.3726 437.448 13 432.076 13 425.448Z" fill="#559991"/>
<circle cx="25" cy="418" r="12" fill="#C2E9E7"/>
<path d="M25 406C31.6274 406 37 411.373 37 418C37 418.278 36.9893 418.554 36.9707 418.827C36.5453 412.586 31.3491 407.655 25 407.655C18.6509 407.655 13.4537 412.586 13.0283 418.827C13.0097 418.554 13 418.278 13 418C13 411.373 18.3726 406 25 406Z" fill="#FBFFFD"/>
<path d="M57 425.448V418H81V425.448C81 432.076 75.6274 437.448 69 437.448C62.3726 437.448 57 432.076 57 425.448Z" fill="#559991"/>
<circle cx="69" cy="418" r="12" fill="#C2E9E7"/>
<path d="M69 406C75.6274 406 81 411.373 81 418C81 418.278 80.9893 418.554 80.9707 418.827C80.5453 412.586 75.3491 407.655 69 407.655C62.6509 407.655 57.4537 412.586 57.0283 418.827C57.0097 418.554 57 418.278 57 418C57 411.373 62.3726 406 69 406Z" fill="#FBFFFD"/>
<mask id="path-63-outside-1_1826_12639" maskUnits="userSpaceOnUse" x="0" y="0" width="94" height="91" fill="black">
<rect fill="white" width="94" height="91"/>
<path d="M0 9C0 4.02944 4.02944 0 9 0H85C89.9706 0 94 4.02944 94 9V76C94 80.9706 89.9706 85 85 85H9C4.02944 85 0 80.9706 0 76V9Z"/>
</mask>
<path d="M0 9C0 4.02944 4.02944 0 9 0H85C89.9706 0 94 4.02944 94 9V76C94 80.9706 89.9706 85 85 85H9C4.02944 85 0 80.9706 0 76V9Z" fill="#FBFFFD"/>
<path d="M0 0H94H0ZM94 76C94 84.2843 87.2843 91 79 91H15C6.71573 91 0 84.2843 0 76C0 77.6569 4.02944 79 9 79H85C89.9706 79 94 77.6569 94 76ZM0 85V0V85ZM94 0V85V0Z" fill="#C2E9E7" mask="url(#path-63-outside-1_1826_12639)"/>
<mask id="path-65-outside-2_1826_12639" maskUnits="userSpaceOnUse" x="0" y="86" width="94" height="48" fill="black">
<rect fill="white" y="86" width="94" height="48"/>
<path d="M0 95C0 90.0294 4.02944 86 9 86H85C89.9706 86 94 90.0294 94 95V119C94 123.971 89.9706 128 85 128H9C4.02944 128 0 123.971 0 119V95Z"/>
</mask>
<path d="M0 95C0 90.0294 4.02944 86 9 86H85C89.9706 86 94 90.0294 94 95V119C94 123.971 89.9706 128 85 128H9C4.02944 128 0 123.971 0 119V95Z" fill="#ECF8F5"/>
<path d="M0 86H94H0ZM94 119C94 127.284 87.2843 134 79 134H15C6.71573 134 0 127.284 0 119C0 120.657 4.02944 122 9 122H85C89.9706 122 94 120.657 94 119ZM0 128V86V128ZM94 86V128V86Z" fill="#C2E9E7" mask="url(#path-65-outside-2_1826_12639)"/>
<mask id="path-67-outside-3_1826_12639" maskUnits="userSpaceOnUse" x="0" y="129" width="94" height="48" fill="black">
<rect fill="white" y="129" width="94" height="48"/>
<path d="M0 138C0 133.029 4.02944 129 9 129H85C89.9706 129 94 133.029 94 138V162C94 166.971 89.9706 171 85 171H9C4.02944 171 0 166.971 0 162V138Z"/>
</mask>
<path d="M0 138C0 133.029 4.02944 129 9 129H85C89.9706 129 94 133.029 94 138V162C94 166.971 89.9706 171 85 171H9C4.02944 171 0 166.971 0 162V138Z" fill="#FBFFFD"/>
<path d="M0 129H94H0ZM94 162C94 170.284 87.2843 177 79 177H15C6.71573 177 0 170.284 0 162C0 163.657 4.02944 165 9 165H85C89.9706 165 94 163.657 94 162ZM0 171V129V171ZM94 129V171V129Z" fill="#559991" mask="url(#path-67-outside-3_1826_12639)"/>
<mask id="path-69-outside-4_1826_12639" maskUnits="userSpaceOnUse" x="0" y="172" width="47" height="48" fill="black">
<rect fill="white" y="172" width="47" height="48"/>
<path d="M0 181C0 176.029 4.02944 172 9 172H38C42.9706 172 47 176.029 47 181V205C47 209.971 42.9706 214 38 214H9C4.02944 214 0 209.971 0 205V181Z"/>
</mask>
<path d="M0 181C0 176.029 4.02944 172 9 172H38C42.9706 172 47 176.029 47 181V205C47 209.971 42.9706 214 38 214H9C4.02944 214 0 209.971 0 205V181Z" fill="#ECF8F5"/>
<path d="M0 172H47H0ZM47 205C47 213.284 40.2843 220 32 220H15C6.71573 220 0 213.284 0 205C0 206.657 4.02944 208 9 208H38C42.9706 208 47 206.657 47 205ZM0 214V172V214ZM47 172V214V172Z" fill="#559991" mask="url(#path-69-outside-4_1826_12639)"/>
</g>
<defs>
<clipPath id="clip0_1826_12639">
<path d="M0 8.99999C0 4.02943 4.02944 0 9 0H85C89.9706 0 94 4.02944 94 9V431C94 435.971 89.9706 440 85 440H9C4.02944 440 0 435.971 0 431V8.99999Z" fill="white"/>
</clipPath>
</defs>
</svg>
