<svg width="30" height="30" viewBox="0 0 30 30" fill="none" xmlns="http://www.w3.org/2000/svg">
<path d="M0.75 12.5C0.75 11.8096 1.30964 11.25 2 11.25H3.25C3.94036 11.25 4.5 11.8096 4.5 12.5V13.75C4.5 14.4404 3.94036 15 3.25 15H2C1.30964 15 0.75 14.4404 0.75 13.75V12.5Z" fill="#00A084"/>
<path d="M4.5 12.5C4.5 11.8096 5.05964 11.25 5.75 11.25H7C7.69036 11.25 8.25 11.8096 8.25 12.5V13.75C8.25 14.4404 7.69036 15 7 15H5.75C5.05964 15 4.5 14.4404 4.5 13.75V12.5Z" fill="#00A084"/>
<path d="M0.75 16.25C0.75 15.5596 1.30964 15 2 15H3.25C3.94036 15 4.5 15.5596 4.5 16.25V17.5C4.5 18.1904 3.94036 18.75 3.25 18.75H2C1.30964 18.75 0.75 18.1904 0.75 17.5V16.25Z" fill="#00A084"/>
<path d="M8.25 16.25C8.25 15.5596 8.80964 15 9.5 15H10.75C11.4404 15 12 15.5596 12 16.25V17.5C12 18.1904 11.4404 18.75 10.75 18.75H9.5C8.80964 18.75 8.25 18.1904 8.25 17.5V16.25Z" fill="#00A084"/>
<path d="M0.75 20C0.75 19.3096 1.30964 18.75 2 18.75H3.25C3.94036 18.75 4.5 19.3096 4.5 20V21.25C4.5 21.9404 3.94036 22.5 3.25 22.5H2C1.30964 22.5 0.75 21.9404 0.75 21.25V20Z" fill="#00A084"/>
<path d="M4.5 20C4.5 19.3096 5.05964 18.75 5.75 18.75H7C7.69036 18.75 8.25 19.3096 8.25 20V21.25C8.25 21.9404 7.69036 22.5 7 22.5H5.75C5.05964 22.5 4.5 21.9404 4.5 21.25V20Z" fill="#00A084"/>
<path d="M19.5 20C19.5 19.3096 20.0596 18.75 20.75 18.75H22C22.6904 18.75 23.25 19.3096 23.25 20V21.25C23.25 21.9404 22.6904 22.5 22 22.5H20.75C20.0596 22.5 19.5 21.9404 19.5 21.25V20Z" fill="#00A084"/>
<path d="M8.25 5C8.25 4.30964 8.80964 3.75 9.5 3.75H10.75C11.4404 3.75 12 4.30964 12 5V6.25C12 6.94036 11.4404 7.5 10.75 7.5H9.5C8.80964 7.5 8.25 6.94036 8.25 6.25V5Z" fill="#00A084"/>
<path d="M4.5 16.25C4.5 15.5596 5.05964 15 5.75 15H7C7.69036 15 8.25 15.5596 8.25 16.25V17.5C8.25 18.1904 7.69036 18.75 7 18.75H5.75C5.05964 18.75 4.5 18.1904 4.5 17.5V16.25Z" fill="#00A084"/>
<path d="M12 16.25C12 15.5596 12.5596 15 13.25 15H14.5C15.1904 15 15.75 15.5596 15.75 16.25V17.5C15.75 18.1904 15.1904 18.75 14.5 18.75H13.25C12.5596 18.75 12 18.1904 12 17.5V16.25Z" fill="#00A084"/>
<path d="M19.5 16.25C19.5 15.5596 20.0596 15 20.75 15H22C22.6904 15 23.25 15.5596 23.25 16.25V17.5C23.25 18.1904 22.6904 18.75 22 18.75H20.75C20.0596 18.75 19.5 18.1904 19.5 17.5V16.25Z" fill="#00A084"/>
<path d="M4.5 8.75C4.5 8.05964 5.05964 7.5 5.75 7.5H7C7.69036 7.5 8.25 8.05964 8.25 8.75V10C8.25 10.6904 7.69036 11.25 7 11.25H5.75C5.05964 11.25 4.5 10.6904 4.5 10V8.75Z" fill="#00A084"/>
<path d="M15.75 8.75C15.75 8.05964 16.3096 7.5 17 7.5H18.25C18.9404 7.5 19.5 8.05964 19.5 8.75V10C19.5 10.6904 18.9404 11.25 18.25 11.25H17C16.3096 11.25 15.75 10.6904 15.75 10V8.75Z" fill="#00A084"/>
<path d="M19.5 12.5C19.5 11.8096 20.0596 11.25 20.75 11.25H22C22.6904 11.25 23.25 11.8096 23.25 12.5V13.75C23.25 14.4404 22.6904 15 22 15H20.75C20.0596 15 19.5 14.4404 19.5 13.75V12.5Z" fill="#00A084"/>
<path d="M15.75 16.25C15.75 15.5596 16.3096 15 17 15H18.25C18.9404 15 19.5 15.5596 19.5 16.25V17.5C19.5 18.1904 18.9404 18.75 18.25 18.75H17C16.3096 18.75 15.75 18.1904 15.75 17.5V16.25Z" fill="#00A084"/>
<path d="M15.75 20C15.75 19.3096 16.3096 18.75 17 18.75H18.25C18.9404 18.75 19.5 19.3096 19.5 20V21.25C19.5 21.9404 18.9404 22.5 18.25 22.5H17C16.3096 22.5 15.75 21.9404 15.75 21.25V20Z" fill="#00A084"/>
<path d="M12 5C12 4.30964 12.5596 3.75 13.25 3.75H14.5C15.1904 3.75 15.75 4.30964 15.75 5V6.25C15.75 6.94036 15.1904 7.5 14.5 7.5H13.25C12.5596 7.5 12 6.94036 12 6.25V5Z" fill="#00A084"/>
<path d="M8.25 12.5C8.25 11.8096 8.80964 11.25 9.5 11.25H10.75C11.4404 11.25 12 11.8096 12 12.5V13.75C12 14.4404 11.4404 15 10.75 15H9.5C8.80964 15 8.25 14.4404 8.25 13.75V12.5Z" fill="#00A084"/>
<path d="M12 12.5C12 11.8096 12.5596 11.25 13.25 11.25H14.5C15.1904 11.25 15.75 11.8096 15.75 12.5V13.75C15.75 14.4404 15.1904 15 14.5 15H13.25C12.5596 15 12 14.4404 12 13.75V12.5Z" fill="#00A084"/>
<path d="M15.75 12.5C15.75 11.8096 16.3096 11.25 17 11.25H18.25C18.9404 11.25 19.5 11.8096 19.5 12.5V13.75C19.5 14.4404 18.9404 15 18.25 15H17C16.3096 15 15.75 14.4404 15.75 13.75V12.5Z" fill="#00A084"/>
<path d="M8.25 20C8.25 19.3096 8.80964 18.75 9.5 18.75H10.75C11.4404 18.75 12 19.3096 12 20V21.25C12 21.9404 11.4404 22.5 10.75 22.5H9.5C8.80964 22.5 8.25 21.9404 8.25 21.25V20Z" fill="#00A084"/>
<path d="M12 20C12 19.3096 12.5596 18.75 13.25 18.75H14.5C15.1904 18.75 15.75 19.3096 15.75 20V21.25C15.75 21.9404 15.1904 22.5 14.5 22.5H13.25C12.5596 22.5 12 21.9404 12 21.25V20Z" fill="#00A084"/>
</svg>
