<svg width="22" height="22" viewBox="0 0 22 22" fill="none" xmlns="http://www.w3.org/2000/svg">
<path d="M6.28906 17.8098C6.28906 18.3884 5.82003 18.8574 5.24144 18.8574H4.19382C3.61524 18.8574 3.14621 18.3884 3.14621 17.8098V16.7622C3.14621 16.1836 3.61524 15.7146 4.19382 15.7146H5.24144C5.82003 15.7146 6.28906 16.1836 6.28906 16.7622V17.8098Z" fill="#00A084"/>
<path d="M6.28906 14.6672C6.28906 15.2458 5.82003 15.7148 5.24144 15.7148L4.19382 15.7148C3.61524 15.7148 3.14621 15.2458 3.14621 14.6672V13.6196C3.14621 13.041 3.61524 12.572 4.19382 12.572H5.24144C5.82003 12.572 6.28906 13.041 6.28906 13.6196V14.6672Z" fill="#00A084"/>
<path d="M6.28906 11.5246C6.28906 12.1032 5.82003 12.5723 5.24144 12.5723L4.19382 12.5723C3.61524 12.5723 3.14621 12.1032 3.14621 11.5246V10.477C3.14621 9.89844 3.61524 9.42941 4.19382 9.42941H5.24144C5.82003 9.42941 6.28906 9.89844 6.28906 10.477V11.5246Z" fill="#00A084"/>
<path d="M6.28906 8.38012C6.28906 8.9587 5.82003 9.42773 5.24144 9.42773L4.19382 9.42773C3.61524 9.42773 3.14621 8.9587 3.14621 8.38012V7.3325C3.14621 6.75391 3.61524 6.28488 4.19382 6.28488L5.24144 6.28488C5.82003 6.28488 6.28906 6.75391 6.28906 7.3325V8.38012Z" fill="#00A084"/>
<path d="M6.28906 5.23754C6.28906 5.81612 5.82003 6.28516 5.24144 6.28516H4.19382C3.61524 6.28516 3.14621 5.81612 3.14621 5.23754V4.18992C3.14621 3.61133 3.61524 3.1423 4.19382 3.1423L5.24144 3.1423C5.82003 3.1423 6.28906 3.61133 6.28906 4.18992V5.23754Z" fill="#00A084"/>
<path d="M9.42969 11.5246C9.42969 12.1032 8.96065 12.5723 8.38207 12.5723L7.33445 12.5723C6.75587 12.5723 6.28683 12.1032 6.28683 11.5246V10.477C6.28683 9.89844 6.75587 9.42941 7.33445 9.42941H8.38207C8.96065 9.42941 9.42969 9.89844 9.42969 10.477V11.5246Z" fill="#00A084"/>
<path d="M9.42969 5.23754C9.42969 5.81612 8.96065 6.28516 8.38207 6.28516H7.33445C6.75587 6.28516 6.28683 5.81612 6.28683 5.23754V4.18992C6.28683 3.61133 6.75587 3.1423 7.33445 3.1423L8.38207 3.1423C8.96065 3.1423 9.42969 3.61133 9.42969 4.18992V5.23754Z" fill="#00A084"/>
<path d="M12.5703 14.6672C12.5703 15.2458 12.1013 15.7148 11.5227 15.7148L10.4751 15.7148C9.89649 15.7148 9.42746 15.2458 9.42746 14.6672V13.6196C9.42746 13.041 9.89649 12.572 10.4751 12.572H11.5227C12.1013 12.572 12.5703 13.041 12.5703 13.6196V14.6672Z" fill="#00A084"/>
<path d="M12.5703 11.5246C12.5703 12.1032 12.1013 12.5723 11.5227 12.5723L10.4751 12.5723C9.89649 12.5723 9.42746 12.1032 9.42746 11.5246V10.477C9.42746 9.89844 9.89649 9.42941 10.4751 9.42941H11.5227C12.1013 9.42941 12.5703 9.89844 12.5703 10.477V11.5246Z" fill="#00A084"/>
<path d="M12.5703 5.23754C12.5703 5.81612 12.1013 6.28516 11.5227 6.28516H10.4751C9.89649 6.28516 9.42746 5.81612 9.42746 5.23754V4.18992C9.42746 3.61133 9.89649 3.1423 10.4751 3.1423L11.5227 3.1423C12.1013 3.1423 12.5703 3.61133 12.5703 4.18992V5.23754Z" fill="#00A084"/>
<path d="M15.7109 17.8098C15.7109 18.3884 15.2419 18.8574 14.6633 18.8574H13.6157C13.0371 18.8574 12.5681 18.3884 12.5681 17.8098V16.7622C12.5681 16.1836 13.0371 15.7146 13.6157 15.7146H14.6633C15.2419 15.7146 15.7109 16.1836 15.7109 16.7622V17.8098Z" fill="#00A084"/>
<path d="M15.7109 11.5246C15.7109 12.1032 15.2419 12.5723 14.6633 12.5723L13.6157 12.5723C13.0371 12.5723 12.5681 12.1032 12.5681 11.5246V10.477C12.5681 9.89844 13.0371 9.42941 13.6157 9.42941H14.6633C15.2419 9.42941 15.7109 9.89844 15.7109 10.477V11.5246Z" fill="#00A084"/>
<path d="M15.7109 5.23754C15.7109 5.81612 15.2419 6.28516 14.6633 6.28516H13.6157C13.0371 6.28516 12.5681 5.81612 12.5681 5.23754V4.18992C12.5681 3.61133 13.0371 3.1423 13.6157 3.1423L14.6633 3.1423C15.2419 3.1423 15.7109 3.61133 15.7109 4.18992V5.23754Z" fill="#00A084"/>
<path d="M18.8594 17.8098C18.8594 18.3884 18.3903 18.8574 17.8118 18.8574H16.7641C16.1856 18.8574 15.7165 18.3884 15.7165 17.8098V16.7622C15.7165 16.1836 16.1856 15.7146 16.7641 15.7146H17.8118C18.3903 15.7146 18.8594 16.1836 18.8594 16.7622V17.8098Z" fill="#00A084"/>
<path d="M18.8594 11.5246C18.8594 12.1032 18.3903 12.5723 17.8118 12.5723L16.7641 12.5723C16.1856 12.5723 15.7165 12.1032 15.7165 11.5246V10.477C15.7165 9.89844 16.1856 9.42941 16.7641 9.42941H17.8118C18.3903 9.42941 18.8594 9.89844 18.8594 10.477V11.5246Z" fill="#00A084"/>
<path d="M18.8594 8.38012C18.8594 8.9587 18.3903 9.42773 17.8118 9.42773L16.7641 9.42773C16.1856 9.42773 15.7165 8.9587 15.7165 8.38012V7.3325C15.7165 6.75391 16.1856 6.28488 16.7641 6.28488L17.8118 6.28488C18.3903 6.28488 18.8594 6.75391 18.8594 7.3325V8.38012Z" fill="#00A084"/>
<path d="M18.8594 5.23754C18.8594 5.81612 18.3903 6.28516 17.8118 6.28516H16.7641C16.1856 6.28516 15.7165 5.81612 15.7165 5.23754V4.18992C15.7165 3.61133 16.1856 3.1423 16.7641 3.1423L17.8118 3.1423C18.3903 3.1423 18.8594 3.61133 18.8594 4.18992V5.23754Z" fill="#00A084"/>
</svg>
