<svg width="9" height="10" viewBox="0 0 9 10" fill="none" xmlns="http://www.w3.org/2000/svg">
<path d="M3.70596 1.00568C4.02063 0.331439 4.97937 0.33144 5.29404 1.00568L6.17762 2.89892C6.26466 3.08542 6.41458 3.23534 6.60108 3.32238L8.49432 4.20596C9.16856 4.52063 9.16856 5.47937 8.49432 5.79404L6.60108 6.67762C6.41458 6.76466 6.26466 6.91458 6.17762 7.10108L5.29404 8.99432C4.97937 9.66856 4.02063 9.66856 3.70595 8.99432L2.82238 7.10108C2.73534 6.91458 2.58542 6.76466 2.39892 6.67762L0.505681 5.79404C-0.168561 5.47937 -0.16856 4.52063 0.505682 4.20595L2.39892 3.32238C2.58542 3.23534 2.73534 3.08542 2.82238 2.89892L3.70596 1.00568Z" fill="#00A084"/>
</svg>
